<?xml version="1.0" encoding="utf-8"?>
<!-- Generator: Adobe Illustrator 15.0.0, SVG Export Plug-In . SVG Version: 6.00 Build 0)  -->
<!DOCTYPE svg PUBLIC "-//W3C//DTD SVG 1.1//EN" "http://www.w3.org/Graphics/SVG/1.1/DTD/svg11.dtd">
<svg version="1.1" id="Layer_1" xmlns="http://www.w3.org/2000/svg" xmlns:xlink="http://www.w3.org/1999/xlink" x="0px" y="0px"
	 width="60px" height="60px" viewBox="0 0 60 60" enable-background="new 0 0 60 60" xml:space="preserve">
<g>
	<g>
		<path d="M51.019,26.691l-1.423-6.372c-0.191-0.865-1.152-1.97-2.308-1.97h-5.01c-0.934,0-1.69,0.756-1.69,1.69v15.243
			c0,1.004,0.813,1.816,1.816,1.816h8.054c1.004,0,1.817-0.812,1.817-1.816v-6.646C52.275,27.97,51.891,27.461,51.019,26.691z"/>
		<path fill="#FFFFFF" d="M48.733,25.335c0,0.826-0.669,1.495-1.494,1.495h-3.681c-0.825,0-1.494-0.669-1.494-1.495v-3.931
			c0-0.825,0.669-1.495,1.494-1.495h3.127c0.825,0,1.282,0.596,1.495,1.495L48.733,25.335z"/>
		<g>
			<path d="M36.733,34.892H15.952h-1.091H11.76v1.385c0,1.244,1.009,2.253,2.253,2.253h22.72c1.244,0,2.254-1.008,2.254-2.253
				v-3.639C38.987,33.883,37.978,34.892,36.733,34.892z"/>
			<path fill="#FFFFFF" d="M14.735,17.261c-1.244,0-2.602,0.621-4.056,3.331l-4.911,8.02c0,2.001,5.992,6.28,5.992,6.28h3.101
				v-17.63H14.735z"/>
			<path fill="#FFFFFF" d="M36.733,17.261H15.952v17.63h20.781c1.244,0,2.254-1.009,2.254-2.254V19.514
				C38.987,18.269,37.978,17.261,36.733,17.261z"/>
		</g>
		<g>
			<circle fill="#FFFFFF" cx="18.753" cy="40.765" r="5.317"/>
			<path d="M18.753,37.632c1.728,0,3.134,1.405,3.134,3.133s-1.406,3.134-3.134,3.134c-1.727,0-3.133-1.406-3.133-3.134
				S17.026,37.632,18.753,37.632 M18.753,35.448c-2.937,0-5.316,2.38-5.316,5.316c0,2.936,2.38,5.316,5.316,5.316
				s5.317-2.381,5.317-5.316C24.07,37.828,21.689,35.448,18.753,35.448L18.753,35.448z"/>
		</g>
		<g>
			<circle fill="#FFFFFF" cx="43.583" cy="40.765" r="5.316"/>
			<path d="M43.583,37.632c1.728,0,3.133,1.405,3.133,3.133s-1.405,3.134-3.133,3.134c-1.729,0-3.135-1.406-3.135-3.134
				S41.854,37.632,43.583,37.632 M43.583,35.448c-2.937,0-5.316,2.38-5.316,5.316c0,2.936,2.38,5.316,5.316,5.316
				c2.936,0,5.315-2.381,5.315-5.316C48.898,37.828,46.519,35.448,43.583,35.448L43.583,35.448z"/>
		</g>
	</g>
</g>
</svg>
