<?xml version="1.0" encoding="utf-8"?>
<!-- Generator: Adobe Illustrator 15.0.0, SVG Export Plug-In . SVG Version: 6.00 Build 0)  -->
<!DOCTYPE svg PUBLIC "-//W3C//DTD SVG 1.1//EN" "http://www.w3.org/Graphics/SVG/1.1/DTD/svg11.dtd">
<svg version="1.1" id="Layer_1" xmlns="http://www.w3.org/2000/svg" xmlns:xlink="http://www.w3.org/1999/xlink" x="0px" y="0px"
	 width="60px" height="60px" viewBox="0 0 60 60" enable-background="new 0 0 60 60" xml:space="preserve">
<g>
	<g>
		<polygon fill="#FFFFFF" points="41.372,43.232 52.828,43.232 50.847,40.189 39.392,40.189 		"/>
		<polygon fill="#FFFFFF" points="39.392,40.168 50.847,40.168 50.847,32.381 41.983,32.381 39.392,34.018 		"/>
		<polygon points="52.066,40.189 52.066,32.381 42.085,32.381 42.085,40.189 44.064,43.232 54.047,43.232 		"/>
	</g>
	<path fill="#FFFFFF" d="M8.965,27.186v8.377c0,1.268,1.026,2.291,2.291,2.291h24.849c1.263,0,2.289-1.023,2.289-2.291v-8.377
		c0-1.267-1.026-2.291-2.289-2.291H11.256C9.991,24.895,8.965,25.919,8.965,27.186z"/>
	<path fill="#FFFFFF" d="M21.785,17.487c0-1.265,1.026-2.29,2.29-2.29h9.822c1.265,0,2.29,1.024,2.29,2.29v6.54
		c0,1.265-1.025,2.291-2.29,2.291h-9.822c-1.264,0-2.29-1.026-2.29-2.291V17.487z"/>
	<g>
		<circle fill="#FFFFFF" cx="14.954" cy="37.607" r="5.989"/>
		<path d="M14.954,33.801c2.099,0,3.806,1.707,3.806,3.807c0,2.098-1.707,3.805-3.806,3.805s-3.806-1.707-3.806-3.805
			C11.148,35.508,12.855,33.801,14.954,33.801 M14.954,31.619c-3.309,0-5.989,2.682-5.989,5.988c0,3.305,2.68,5.988,5.989,5.988
			c3.306,0,5.988-2.684,5.988-5.988C20.942,34.301,18.26,31.619,14.954,31.619L14.954,31.619z"/>
	</g>
	<g>
		<circle fill="#FFFFFF" cx="30.958" cy="37.607" r="5.989"/>
		<path d="M30.957,33.801c2.1,0,3.807,1.707,3.807,3.807c0,2.098-1.707,3.805-3.807,3.805c-2.099,0-3.806-1.707-3.806-3.805
			C27.151,35.508,28.858,33.801,30.957,33.801 M30.957,31.619c-3.309,0-5.988,2.682-5.988,5.988c0,3.305,2.68,5.988,5.988,5.988
			c3.307,0,5.989-2.684,5.989-5.988C36.946,34.301,34.264,31.619,30.957,31.619L30.957,31.619z"/>
	</g>
	<path d="M34.897,11.426H23.075c-1.178,0-2.133,0.954-2.133,2.132v11.96c0,1.178,0.955,2.132,2.133,2.132h11.822
		c1.178,0,2.132-0.954,2.132-2.132v-11.96C37.029,12.38,36.075,11.426,34.897,11.426z M22.184,23.711v-5.963
		c0-1.177,0.955-2.133,2.132-2.133h4.166v10.229h-4.166C23.139,25.844,22.184,24.89,22.184,23.711z M35.787,23.711
		c0,1.179-0.954,2.133-2.132,2.133h-3.718V15.615h3.718c1.178,0,2.132,0.956,2.132,2.133V23.711z"/>
</g>
</svg>
