<?xml version="1.0" encoding="utf-8"?>
<!-- Generator: Adobe Illustrator 15.0.0, SVG Export Plug-In . SVG Version: 6.00 Build 0)  -->
<!DOCTYPE svg PUBLIC "-//W3C//DTD SVG 1.1//EN" "http://www.w3.org/Graphics/SVG/1.1/DTD/svg11.dtd">
<svg version="1.1" id="Layer_1" xmlns="http://www.w3.org/2000/svg" xmlns:xlink="http://www.w3.org/1999/xlink" x="0px" y="0px"
	 width="60px" height="60px" viewBox="0 0 60 60" enable-background="new 0 0 60 60" xml:space="preserve">
<g>
	<g>
		<path fill="#FFFFFF" d="M41.416,28.766h-9.001c0.11-0.268,0.173-0.56,0.173-0.867v-6.54c0-1.265-1.025-2.29-2.29-2.29h-9.822
			c-1.264,0-2.29,1.025-2.29,2.29v6.54c0,0.307,0.063,0.6,0.172,0.867h-1.791c-1.265,0-2.291,1.025-2.291,2.291v8.377
			c0,1.268,1.026,2.291,2.291,2.291h24.848c1.264,0,2.289-1.023,2.289-2.291v-8.377C43.705,29.791,42.68,28.766,41.416,28.766z"/>
		<g>
			<circle fill="#FFFFFF" cx="40.94" cy="41.479" r="5.988"/>
			<path d="M40.941,37.674c2.098,0,3.806,1.707,3.806,3.805s-1.708,3.805-3.806,3.805c-2.099,0-3.807-1.707-3.807-3.805
				S38.843,37.674,40.941,37.674 M40.941,35.49c-3.309,0-5.989,2.682-5.989,5.988s2.681,5.988,5.989,5.988
				c3.305,0,5.987-2.682,5.987-5.988S44.246,35.49,40.941,35.49L40.941,35.49z"/>
		</g>
		<g>
			<circle fill="#FFFFFF" cx="21.476" cy="39.877" r="7.59"/>
			<path d="M21.477,34.469c2.982,0,5.408,2.426,5.408,5.408s-2.426,5.406-5.408,5.406s-5.407-2.424-5.407-5.406
				S18.495,34.469,21.477,34.469 M21.477,32.287c-4.192,0-7.59,3.398-7.59,7.59s3.398,7.59,7.59,7.59
				c4.192,0,7.589-3.398,7.589-7.59S25.669,32.287,21.477,32.287L21.477,32.287z"/>
		</g>
		<path d="M31.297,15.297H19.476c-1.178,0-2.133,0.954-2.133,2.132v11.96c0,1.179,0.955,2.132,2.133,2.132h11.821
			c1.179,0,2.134-0.953,2.134-2.132V17.43C33.431,16.251,32.476,15.297,31.297,15.297z M18.585,27.583V21.62
			c0-1.178,0.955-2.133,2.132-2.133h4.167v10.229h-4.167C19.54,29.716,18.585,28.761,18.585,27.583z M32.188,27.583
			c0,1.178-0.954,2.132-2.132,2.132h-3.718V19.486h3.718c1.178,0,2.132,0.956,2.132,2.133V27.583z"/>
	</g>
</g>
</svg>
