<?xml version="1.0" encoding="utf-8"?>
<!-- Generator: Adobe Illustrator 15.0.0, SVG Export Plug-In . SVG Version: 6.00 Build 0)  -->
<!DOCTYPE svg PUBLIC "-//W3C//DTD SVG 1.1//EN" "http://www.w3.org/Graphics/SVG/1.1/DTD/svg11.dtd">
<svg version="1.1" id="Layer_1" xmlns="http://www.w3.org/2000/svg" xmlns:xlink="http://www.w3.org/1999/xlink" x="0px" y="0px"
	 width="60px" height="60px" viewBox="0 0 60 60" enable-background="new 0 0 60 60" xml:space="preserve">
<g>
	<path d="M36.69,28.463H15.91v5.017h-1.091v-5.017H13.97c-1.244,0-2.252,1.007-2.252,2.253v4.148c0,1.245,1.008,2.253,2.252,2.253
		h22.72c1.246,0,2.255-1.008,2.255-2.253v-4.148C38.945,29.472,37.937,28.463,36.69,28.463z"/>
	<path d="M50.933,25.278l-1.421-6.371c-0.191-0.864-1.153-1.971-2.307-1.971h-5.012c-0.933,0-1.69,0.758-1.69,1.691v15.244
		c0,1.004,0.814,1.816,1.817,1.816h8.053c1.003,0,1.816-0.812,1.816-1.816v-6.646C52.189,26.558,51.805,26.049,50.933,25.278z"/>
	<g>
		<circle fill="#FFFFFF" cx="18.711" cy="39.353" r="5.316"/>
		<path d="M18.71,36.221c1.729,0,3.134,1.404,3.134,3.132s-1.406,3.133-3.134,3.133c-1.728,0-3.133-1.405-3.133-3.133
			S16.983,36.221,18.71,36.221 M18.71,34.037c-2.935,0-5.315,2.379-5.315,5.315s2.38,5.315,5.315,5.315
			c2.937,0,5.316-2.379,5.316-5.315S21.647,34.037,18.71,34.037L18.71,34.037z"/>
	</g>
	<g>
		<circle fill="#FFFFFF" cx="43.54" cy="39.353" r="5.315"/>
		<path d="M43.54,36.221c1.729,0,3.134,1.404,3.134,3.132s-1.405,3.133-3.134,3.133s-3.134-1.405-3.134-3.133
			S41.812,36.221,43.54,36.221 M43.54,34.037c-2.936,0-5.315,2.379-5.315,5.315s2.38,5.315,5.315,5.315s5.315-2.379,5.315-5.315
			S46.476,34.037,43.54,34.037L43.54,34.037z"/>
	</g>
	<path fill="#FFFFFF" d="M48.691,23.923c0,0.828-0.669,1.496-1.494,1.496h-3.68c-0.826,0-1.495-0.668-1.495-1.496v-3.931
		c0-0.825,0.669-1.495,1.495-1.495h3.126c0.826,0,1.281,0.596,1.495,1.495L48.691,23.923z"/>
	<path fill="#FFFFFF" d="M40.571,11.33h-2.02c-1.245,0-1.941,0.798-2.669,2.433l-2.258,6.185H9.12c-1.243,0-2.253,1.007-2.253,2.252
		v9.051c0,1.242,1.01,2.25,2.253,2.25h27.57c1.246,0,2.255-1.006,2.255-2.25V16.67c0-0.09-0.017-0.176-0.026-0.264h1.652
		c1.243,0,2.253-1.007,2.253-2.252v-0.571C42.824,12.337,41.814,11.33,40.571,11.33z"/>
</g>
</svg>
