<svg width="26" height="30" viewBox="0 0 26 30" fill="none" xmlns="http://www.w3.org/2000/svg">
<path d="M25.5373 12.7687C25.5373 19.3615 19.3799 24.7873 13.9011 28.7039C13.2234 29.1883 12.3139 29.1883 11.6363 28.7039C6.15737 24.7873 0 19.3615 0 12.7687C0 5.71672 5.71672 0 12.7687 0C19.8206 0 25.5373 5.71672 25.5373 12.7687Z" fill="#3163AE"/>
<circle cx="12.7687" cy="12.7687" r="10.0075" fill="#FFEF62" stroke="#FFFCE2" stroke-width="2"/>
<path d="M15.9775 11.8064H17.9299C17.9638 11.8064 17.9972 11.7981 18.0272 11.7822C18.0571 11.7664 18.0826 11.7434 18.1015 11.7154C18.1203 11.6874 18.1319 11.6552 18.1352 11.6217C18.1385 11.5881 18.1334 11.5543 18.1203 11.5232L17.4823 10.0049C17.4667 9.96758 17.4403 9.93569 17.4064 9.91326C17.3725 9.89084 17.3326 9.87888 17.2919 9.87891H15.9775C15.9228 9.87891 15.8704 9.90046 15.8317 9.93882C15.7931 9.97719 15.7714 10.0292 15.7714 10.0835V11.6018C15.7714 11.6561 15.7931 11.7081 15.8317 11.7465C15.8704 11.7848 15.9228 11.8064 15.9775 11.8064V11.8064ZM16.1836 10.288H17.1547L17.6203 11.3972H16.1836V10.288Z" fill="black"/>
<path d="M13.9844 15.5018C13.9656 15.3658 13.9656 15.2279 13.9844 15.0919H10.8971C10.9149 15.228 10.9149 15.3658 10.8971 15.5018H13.9844Z" fill="black"/>
<path d="M19.2827 11.4922L18.1157 9.11512C18.0987 9.08061 18.0722 9.05152 18.0394 9.03117C18.0066 9.01082 17.9686 9.00002 17.9299 9H14.7501C14.6954 9 14.6429 9.02153 14.6041 9.05987C14.5653 9.09821 14.5434 9.15024 14.5432 9.20457V12.8293L14.1043 13.1147H12.5367L12.9059 11.0543L14.3167 9.4387C14.3426 9.40899 14.3593 9.37252 14.3649 9.33365C14.3704 9.29477 14.3646 9.25513 14.3481 9.21945C14.3315 9.18378 14.305 9.15358 14.2716 9.13245C14.2383 9.11133 14.1995 9.10018 14.1599 9.10034H12.2138C12.1784 9.10006 12.1434 9.10919 12.1127 9.12679L10.912 9.79883H5.83387C5.79142 9.79897 5.75003 9.81202 5.71527 9.83622C5.68052 9.86042 5.65407 9.8946 5.6395 9.93418L5.01247 11.6524C4.99983 11.6867 4.99673 11.7237 5.00349 11.7595C5.01024 11.7954 5.02662 11.8288 5.05088 11.8562L6.40917 13.3963V15.2973C6.40917 15.3516 6.43088 15.4036 6.46954 15.442C6.5082 15.4803 6.56063 15.5019 6.6153 15.5019H7.48921C7.47145 15.3658 7.47145 15.228 7.48921 15.092H6.82457V13.5246H14.1662C14.2064 13.5247 14.2457 13.5128 14.2791 13.4904L14.8277 13.1334C15.0872 13.0852 16.8656 12.8339 17.7426 14.6276C17.7596 14.6621 17.786 14.6912 17.8189 14.7116C17.8517 14.7319 17.8896 14.7427 17.9284 14.7427H18.8893V15.092H17.3883C17.4071 15.228 17.4071 15.3659 17.3883 15.5019H19.097C19.1517 15.5019 19.2042 15.4804 19.243 15.442C19.2818 15.4037 19.3037 15.3516 19.3039 15.2973V11.5816C19.304 11.5506 19.2967 11.5199 19.2827 11.4922V11.4922ZM12.1213 13.1147H6.71327L5.44512 11.6773L5.97887 10.2087H10.9661C11.0015 10.2087 11.0363 10.1996 11.0672 10.1823L12.2679 9.50948H13.714L12.561 10.8318C12.5366 10.8596 12.5204 10.8935 12.514 10.9298L12.1213 13.1147ZM18.8908 14.3336H18.0561C17.1697 12.6651 15.5723 12.6434 14.9555 12.7001V9.40992H17.7998L18.8901 11.6291L18.8908 14.3336Z" fill="black"/>
<circle cx="9" cy="15.7" r="2" fill="black"/>
<circle cx="9" cy="15.7" r="2" fill="black"/>
<circle cx="9" cy="15.7" r="2" fill="black"/>
<circle cx="15.5" cy="15.7" r="2" fill="black"/>
<circle cx="15.5" cy="15.7" r="2" fill="black"/>
<circle cx="15.5" cy="15.7" r="2" fill="black"/>
<circle cx="8.5" cy="16.5" r="0.5" fill="#FFEF62"/>
<circle cx="16.5" cy="15.5" r="0.5" fill="#FFEF62"/>
</svg>
