<svg width="26" height="30" viewBox="0 0 26 30" fill="none" xmlns="http://www.w3.org/2000/svg">
<path d="M25.5373 12.7687C25.5373 19.3615 19.3799 24.7873 13.9011 28.7039C13.2234 29.1883 12.3139 29.1883 11.6363 28.7039C6.15737 24.7873 0 19.3615 0 12.7687C0 5.71672 5.71672 0 12.7687 0C19.8206 0 25.5373 5.71672 25.5373 12.7687Z" fill="#3163AE"/>
<circle cx="12.7687" cy="12.7687" r="10.0075" fill="#FFEF62" stroke="#FFFCE2" stroke-width="2"/>
<path d="M12.9211 10.5C12.5411 10.5 12.1697 10.6123 11.8538 10.8227C11.5379 11.0332 11.2916 11.3322 11.1462 11.6822C11.0008 12.0321 10.9628 12.4171 11.0369 12.7886C11.111 13.1601 11.294 13.5013 11.5627 13.7691C11.8313 14.0369 12.1736 14.2193 12.5463 14.2932C12.9189 14.3671 13.3052 14.3292 13.6562 14.1842C14.0072 14.0393 14.3073 13.7938 14.5184 13.4789C14.7295 13.164 14.8421 12.7938 14.8421 12.415C14.8421 11.9071 14.6397 11.42 14.2795 11.0609C13.9192 10.7018 13.4306 10.5 12.9211 10.5V10.5Z" fill="black"/>
<path d="M16.4429 13.5914H16.4681C16.691 13.5638 17.1119 13.3916 17.1119 12.9379V12.8752H17.2846C17.3417 12.8752 17.3965 12.8526 17.4369 12.8123C17.4773 12.772 17.5 12.7174 17.5 12.6604V11.9259C17.5 11.8689 17.4773 11.8143 17.4369 11.774C17.3965 11.7338 17.3417 11.7111 17.2846 11.7111H17.1119V11.6409C17.1144 11.5592 17.1002 11.4779 17.07 11.4018C17.0398 11.3258 16.9944 11.2568 16.9364 11.1989C16.8784 11.1411 16.8092 11.0956 16.733 11.0655C16.6568 11.0353 16.5752 11.021 16.4932 11.0234H16.074V9.27688H16.6022H16.6433C16.7524 9.27863 16.8586 9.24127 16.9425 9.17159C16.9946 9.1239 17.0354 9.06527 17.0619 8.99994C17.0884 8.93462 17.1 8.86423 17.0959 8.79387V8.22646C17.0971 8.17128 17.087 8.11644 17.0664 8.06523C17.0457 8.01402 17.0149 7.96751 16.9757 7.92848C16.9366 7.88945 16.8899 7.85872 16.8385 7.83812C16.7872 7.81753 16.7321 7.8075 16.6768 7.80863C16.4748 7.80863 16.09 7.72089 15.9684 7.63315C15.9483 7.60641 15.9064 7.52953 15.8695 7.461C15.6012 6.97131 14.9281 5.74039 13.472 5.52897V5.22395C13.472 5.19454 13.4662 5.16542 13.4549 5.13825C13.4436 5.11108 13.427 5.08639 13.4062 5.06559C13.3853 5.0448 13.3605 5.0283 13.3333 5.01705C13.306 5.00579 13.2768 5 13.2473 5H12.7737C12.714 5 12.6568 5.02357 12.6145 5.06554C12.5722 5.10752 12.5484 5.16448 12.5482 5.22395V5.53565C10.9411 5.79554 10.18 7.29053 10.0333 7.60891C9.83877 7.74011 9.51267 7.92646 9.33327 7.95153C9.04573 7.98329 8.95101 8.18635 8.95604 8.32173V8.93259L8.96693 8.96518C9.0122 9.09972 9.13459 9.25766 9.31483 9.25766H9.99301V11.0226C9.82535 11.0226 9.67865 11.0226 9.65183 11.0226C9.63704 11.0213 9.62218 11.0213 9.6074 11.0226C9.28297 11.051 8.95604 11.2641 8.95604 11.6769V11.7136H8.73137C8.67008 11.7139 8.61135 11.7382 8.56801 11.7814C8.52467 11.8247 8.50022 11.8832 8.5 11.9443V12.6471C8.50022 12.7082 8.52467 12.7667 8.56801 12.8099C8.61135 12.8531 8.67008 12.8775 8.73137 12.8777H8.95604V12.978C8.95348 13.0597 8.96773 13.1411 8.99791 13.2171C9.02809 13.2931 9.07355 13.3622 9.1315 13.42C9.18946 13.4779 9.25867 13.5233 9.33489 13.5535C9.41111 13.5837 9.49272 13.598 9.5747 13.5955H9.99385V18.4331H8.7364C8.68171 18.4331 8.62925 18.4548 8.59058 18.4934C8.55191 18.5319 8.53018 18.5842 8.53018 18.6387V19.7944C8.53018 19.8489 8.55191 19.9012 8.59058 19.9398C8.62925 19.9783 8.68171 20 8.7364 20H17.2938C17.3485 20 17.4009 19.9783 17.4396 19.9398C17.4783 19.9012 17.5 19.8489 17.5 19.7944V18.6345C17.5 18.58 17.4783 18.5277 17.4396 18.4892C17.4009 18.4506 17.3485 18.429 17.2938 18.429H16.0749V13.5914H16.4429ZM13.0335 5.90836C14.4586 5.90836 15.136 6.98886 15.4504 7.55376H10.5253C10.8246 7.0273 11.626 5.90836 13.0335 5.90836ZM9.3668 8.36184H9.38273C9.74655 8.31086 10.2596 7.95487 10.3166 7.91393L10.3552 7.88719H15.6423C15.6583 7.90883 15.6769 7.92847 15.6977 7.94568C15.9315 8.13788 16.4597 8.22061 16.6768 8.22061H16.6818C16.6822 8.2231 16.6822 8.22564 16.6818 8.22813V8.79554C16.6836 8.8181 16.6799 8.84076 16.6709 8.86156C16.6617 8.8665 16.6512 8.86854 16.6407 8.86741H15.9106C15.896 8.86405 15.8811 8.86237 15.8662 8.8624H14.1401L9.3668 8.84902V8.36184ZM17.0867 19.588H8.93676V18.8409H17.0867V19.588ZM10.4038 18.429L10.5253 16L10.4038 13.385V13.1811H10.2227H10.1976H9.57303C9.54527 13.1838 9.51724 13.1803 9.49098 13.171C9.46472 13.1616 9.44086 13.1466 9.42114 13.1269C9.40141 13.1072 9.38631 13.0835 9.37691 13.0573C9.36752 13.0311 9.36407 13.0032 9.3668 12.9755V11.6769C9.3668 11.488 9.54033 11.4437 9.62835 11.4337C9.68703 11.4337 9.80859 11.4337 9.99134 11.4337H10.4038V11.2223V9.27103H14.1434H15.6624V11.432H16.0749H16.494C16.5218 11.4293 16.5498 11.4327 16.5761 11.4421C16.6023 11.4515 16.6262 11.4665 16.6459 11.4862C16.6657 11.5059 16.6808 11.5296 16.6901 11.5558C16.6995 11.582 16.703 11.6099 16.7003 11.6376V12.9345C16.7003 13.1192 16.4831 13.1685 16.4278 13.1777H15.8695H15.8444H15.6633L15.5 16L15.6633 18.4248L10.4038 18.429Z" fill="black"/>
</svg>
