<svg width="26" height="30" viewBox="0 0 26 30" fill="none" xmlns="http://www.w3.org/2000/svg">
<path d="M25.5373 12.7687C25.5373 19.3615 19.3799 24.7873 13.9011 28.7039C13.2234 29.1883 12.3139 29.1883 11.6363 28.7039C6.15737 24.7873 0 19.3615 0 12.7687C0 5.71672 5.71672 0 12.7687 0C19.8206 0 25.5373 5.71672 25.5373 12.7687Z" fill="#3163AE"/>
<circle cx="12.7687" cy="12.7687" r="10.0075" fill="#FFEF62" stroke="#FFFCE2" stroke-width="2"/>
<path d="M14.9755 13.3749C14.5478 14.0506 13.8024 14.2638 13.1492 13.9005C12.8615 13.73 12.5963 13.5242 12.3596 13.2878C11.6854 12.6407 10.9985 12.5521 10.2576 13.1069C10.2384 13.1175 10.218 13.1258 10.1969 13.1317C10.4921 12.5453 11.3131 12.2863 11.9618 12.6129C12.2675 12.763 12.5237 13.0206 12.8001 13.2315C12.9656 13.3577 13.117 13.5048 13.2923 13.6137C13.7327 13.8884 14.1822 13.8629 14.6242 13.6069C14.7261 13.5476 14.822 13.477 14.9755 13.3749Z" fill="black"/>
<path d="M17.0716 11.1436C16.885 10.9484 16.6303 10.9611 16.4026 11.1834C16.1899 11.3921 15.9883 11.6135 15.7689 11.8148C15.6887 11.8865 15.6259 11.9755 15.5851 12.0751C15.5444 12.1748 15.5268 12.2824 15.5336 12.3898C15.5411 13.8163 15.5374 15.2428 15.5374 16.6692V16.917C15.5116 16.9054 15.4865 16.8921 15.4625 16.8772C14.81 16.2871 14.1268 16.3051 13.5073 16.92C13.4415 16.9738 13.3592 17.0033 13.2743 17.0033C13.0456 17.0078 12.8173 17.0101 12.5896 17.0101C12.3619 17.0101 12.1349 17.0078 11.9087 17.0033C11.824 17.0033 11.7419 16.9738 11.6764 16.92C11.0599 16.3051 10.3812 16.2871 9.73246 16.8772C9.70835 16.892 9.68333 16.9053 9.65755 16.917V16.6692C9.65755 15.2428 9.65381 13.8163 9.65755 12.3898C9.66437 12.2825 9.64689 12.1751 9.60642 12.0755C9.56594 11.9759 9.50352 11.8868 9.42383 11.8148C9.20509 11.6135 9.00507 11.3921 8.79307 11.1834C8.56834 10.9581 8.31364 10.9484 8.1286 11.1436C7.94357 11.3388 7.95406 11.594 8.18704 11.7907C8.8133 12.3208 8.83128 12.7022 8.8088 13.3426C8.76311 14.6331 8.79532 15.9267 8.79532 17.2188C8.79532 17.7489 8.87622 17.8412 9.40585 17.9035C9.55567 18.5274 9.92049 18.9171 10.5602 18.9914C10.8547 19.0255 11.1516 18.9529 11.3972 18.7867C11.6429 18.6205 11.8211 18.3716 11.8997 18.0852C11.9454 17.914 12.0195 17.8787 12.1738 17.884C12.3117 17.8885 12.4495 17.89 12.5881 17.89C12.7267 17.89 12.8653 17.89 13.0046 17.884C13.1589 17.8787 13.2338 17.914 13.2795 18.0852C13.3595 18.3726 13.5394 18.6219 13.7866 18.7881C14.0339 18.9542 14.3323 19.0263 14.6279 18.9914C15.2714 18.9163 15.634 18.5274 15.7883 17.9035C16.3217 17.8412 16.4026 17.7489 16.4026 17.2188C16.4026 15.9267 16.4348 14.6331 16.3891 13.3426C16.3666 12.7022 16.3846 12.3208 17.0146 11.7907C17.2461 11.594 17.2521 11.3328 17.0716 11.1436Z" fill="black"/>
<path d="M13.741 15.6729C13.6555 15.6729 13.5719 15.6475 13.5008 15.5999C13.4297 15.5523 13.3743 15.4846 13.3416 15.4055C13.3089 15.3263 13.3003 15.2392 13.317 15.1552C13.3337 15.0712 13.3749 14.994 13.4353 14.9334C13.4958 14.8728 13.5728 14.8316 13.6566 14.8148C13.7405 14.7981 13.8274 14.8067 13.9064 14.8395C13.9853 14.8723 14.0529 14.9278 14.1003 14.999C14.1478 15.0703 14.1732 15.154 14.1732 15.2397C14.173 15.3545 14.1274 15.4646 14.0464 15.5458C13.9654 15.627 13.8555 15.6727 13.741 15.6729V15.6729ZM13.741 15.043C13.7021 15.0429 13.6641 15.0543 13.6317 15.0758C13.5993 15.0973 13.5741 15.128 13.5591 15.1639C13.5441 15.1998 13.5401 15.2394 13.5476 15.2776C13.5551 15.3158 13.5737 15.351 13.6012 15.3785C13.6286 15.4061 13.6635 15.4249 13.7016 15.4326C13.7397 15.4402 13.7792 15.4364 13.8151 15.4215C13.851 15.4066 13.8817 15.3814 13.9033 15.3491C13.9249 15.3167 13.9365 15.2786 13.9365 15.2397C13.9366 15.2139 13.9316 15.1884 13.9218 15.1645C13.912 15.1406 13.8976 15.1189 13.8795 15.1007C13.8613 15.0824 13.8397 15.0679 13.816 15.058C13.7922 15.0481 13.7667 15.043 13.741 15.043V15.043Z" fill="black"/>
<path d="M11.6232 15.2855C11.492 15.2857 11.3637 15.2468 11.2546 15.1739C11.1454 15.1009 11.0604 14.9972 11.0101 14.8757C10.9598 14.7543 10.9466 14.6206 10.9722 14.4917C10.9977 14.3627 11.0609 14.2442 11.1537 14.1513C11.2464 14.0583 11.3646 13.995 11.4933 13.9694C11.622 13.9438 11.7553 13.957 11.8765 14.0074C11.9977 14.0578 12.1012 14.143 12.174 14.2524C12.2468 14.3618 12.2856 14.4904 12.2854 14.6218C12.285 14.7977 12.2151 14.9663 12.091 15.0907C11.9669 15.2151 11.7987 15.2851 11.6232 15.2855V15.2855ZM11.6232 14.1947C11.5389 14.1945 11.4564 14.2194 11.3862 14.2663C11.316 14.3131 11.2612 14.3798 11.2289 14.4578C11.1965 14.5359 11.1879 14.6218 11.2043 14.7047C11.2207 14.7876 11.2612 14.8638 11.3208 14.9236C11.3804 14.9835 11.4563 15.0242 11.539 15.0408C11.6217 15.0573 11.7075 15.0489 11.7854 15.0166C11.8633 14.9843 11.9299 14.9295 11.9768 14.8593C12.0237 14.789 12.0487 14.7064 12.0487 14.6218C12.0487 14.5087 12.0039 14.4001 11.9241 14.32C11.8443 14.24 11.7361 14.1949 11.6232 14.1947V14.1947Z" fill="black"/>
<path d="M12.3904 5.21322L12.75 5C12.7717 5.01426 12.7927 5.03078 12.8151 5.0443C12.9058 5.0961 13.0316 5.12688 13.0773 5.20496C13.123 5.28304 13.0938 5.41217 13.0961 5.51878C13.0961 5.70272 13.1006 5.88666 13.1036 6.08637C13.2361 6.01129 13.3568 5.93621 13.4781 5.86113C13.5725 5.80558 13.6684 5.71098 13.7628 5.71098C13.8572 5.71098 13.9643 5.80858 14.0669 5.86113C14.084 5.86756 14.0985 5.87957 14.108 5.89522C14.1175 5.91088 14.1215 5.92928 14.1194 5.94747C14.1194 6.03832 14.1194 6.12991 14.1231 6.22075C14.1257 6.24424 14.1207 6.26792 14.109 6.28842C14.0973 6.30892 14.0794 6.32518 14.0579 6.33487C13.7665 6.50455 13.4774 6.67947 13.186 6.84915C13.1613 6.86037 13.1407 6.8791 13.1273 6.90269C13.1138 6.92628 13.1082 6.95352 13.111 6.98053C13.1193 7.35592 13.1215 7.73131 13.1253 8.10669C13.1253 8.13522 13.1253 8.16375 13.1253 8.20129C13.1485 8.19003 13.1657 8.18327 13.1807 8.17426C13.5216 7.9723 13.8617 7.76884 14.2033 7.56839C14.2207 7.55935 14.2348 7.54507 14.2436 7.52756C14.2525 7.51005 14.2557 7.4902 14.2527 7.47079C14.2482 7.12318 14.246 6.77482 14.24 6.42647C14.2371 6.40701 14.2407 6.38716 14.25 6.36985C14.2593 6.35255 14.2739 6.3387 14.2917 6.33037C14.3741 6.28607 14.4512 6.23202 14.5351 6.18922C14.5506 6.18255 14.5673 6.17911 14.5842 6.17911C14.6011 6.17911 14.6177 6.18255 14.6333 6.18922C14.7203 6.23049 14.8043 6.27764 14.885 6.33037C14.8987 6.34043 14.9103 6.35321 14.9189 6.36794C14.9276 6.38266 14.9331 6.399 14.9351 6.41595C14.9411 6.62167 14.9411 6.82813 14.9434 7.03459C14.9434 7.06162 14.9434 7.08865 14.9434 7.12769C15.1854 6.98354 15.4138 6.8499 15.6408 6.71251C15.6587 6.69916 15.6803 6.69196 15.7026 6.69196C15.7249 6.69196 15.7466 6.69916 15.7644 6.71251C15.8558 6.76656 15.9517 6.81311 16.0453 6.86266L16.0618 6.89044C16.0618 6.9993 16.0618 7.10892 16.0551 7.21703C16.0532 7.23533 16.0476 7.25304 16.0386 7.26906C16.0295 7.28508 16.0173 7.29906 16.0026 7.31012C15.8071 7.43175 15.6079 7.54737 15.4101 7.66524L15.2992 7.73055C15.3344 7.75233 15.3561 7.76584 15.3786 7.7786C15.5562 7.87846 15.7322 7.97981 15.9105 8.07891C15.9299 8.08665 15.9462 8.10051 15.957 8.11839C15.9679 8.13628 15.9726 8.15721 15.9704 8.17801C15.9704 8.26886 15.9704 8.3597 15.9742 8.45054C15.9771 8.47155 15.9728 8.49293 15.9621 8.5112C15.9514 8.52946 15.9347 8.54355 15.915 8.55115C15.8436 8.58778 15.7745 8.6289 15.7082 8.67427C15.6861 8.69283 15.6584 8.70336 15.6296 8.70418C15.6008 8.705 15.5725 8.69605 15.5494 8.67878C15.258 8.50986 14.9629 8.34694 14.6707 8.17952C14.6517 8.16583 14.6289 8.15847 14.6055 8.15847C14.5821 8.15847 14.5593 8.16583 14.5404 8.17952C14.21 8.37847 13.8781 8.57367 13.5463 8.77112C13.5268 8.78314 13.5088 8.79665 13.4819 8.81542L13.5568 8.85896C13.8879 9.04591 14.219 9.23435 14.5486 9.41904C14.5685 9.43362 14.5925 9.44148 14.6171 9.44148C14.6418 9.44148 14.6658 9.43362 14.6857 9.41904C14.9793 9.24186 15.2752 9.06843 15.5689 8.8935C15.5859 8.88106 15.6063 8.87435 15.6273 8.87435C15.6483 8.87435 15.6688 8.88106 15.6858 8.8935C15.7652 8.94355 15.8468 8.98935 15.9307 9.03089C15.9477 9.03779 15.9618 9.05022 15.9707 9.06617C15.9797 9.08212 15.983 9.10064 15.9802 9.11873C15.9802 9.21032 15.9802 9.30117 15.9839 9.39201C15.9868 9.41429 15.9825 9.43691 15.9716 9.45652C15.9606 9.47614 15.9437 9.49169 15.9232 9.50087C15.7734 9.58646 15.6236 9.6773 15.4738 9.76665L15.3239 9.85674C15.3576 9.87701 15.3801 9.89127 15.4026 9.90404C15.6146 10.0234 15.8258 10.1443 16.0393 10.2614C16.0571 10.2691 16.072 10.2823 16.0818 10.299C16.0917 10.3157 16.0959 10.3352 16.094 10.3545C16.094 10.4664 16.0993 10.5797 16.103 10.6901L15.7434 10.9033L15.1329 10.5527C15.085 10.5249 15.0363 10.4986 14.9786 10.4664C14.9786 10.6248 14.9831 10.7667 14.9786 10.9123C14.9786 11.0234 15.0101 11.1563 14.9599 11.2397C14.9097 11.323 14.7786 11.3643 14.6797 11.4176C14.6662 11.4233 14.6517 11.4263 14.637 11.4263C14.6223 11.4263 14.6078 11.4233 14.5943 11.4176C14.5104 11.3763 14.4317 11.3245 14.3486 11.2825C14.3278 11.2743 14.3103 11.2595 14.2988 11.2404C14.2873 11.2212 14.2824 11.1988 14.2849 11.1766C14.2849 10.8312 14.2774 10.4851 14.2767 10.1398C14.2787 10.1178 14.2737 10.0958 14.2624 10.0769C14.2511 10.058 14.234 10.0432 14.2137 10.0347C13.8744 9.84623 13.5395 9.65929 13.1994 9.46559C13.18 9.45433 13.1582 9.44607 13.1305 9.4333C13.135 9.8635 13.1388 10.2832 13.1463 10.7036C13.1463 10.7269 13.1755 10.7569 13.1994 10.7704C13.4242 10.9011 13.6557 11.0279 13.8834 11.1578C13.9793 11.2126 14.1081 11.2532 14.1568 11.338C14.2055 11.4228 14.1733 11.5572 14.1703 11.6699C14.1689 11.6846 14.1644 11.6989 14.1572 11.7118C14.15 11.7247 14.1402 11.736 14.1283 11.7449C14.0534 11.796 13.9703 11.8365 13.8954 11.8876C13.8757 11.9027 13.8516 11.911 13.8268 11.911C13.802 11.911 13.7779 11.9027 13.7583 11.8876C13.5628 11.7727 13.3642 11.6623 13.1545 11.546C13.1545 11.6128 13.1545 11.6676 13.1545 11.7232C13.159 11.9581 13.1642 12.1931 13.1687 12.4289L12.8092 12.6421C12.7103 12.5835 12.6106 12.528 12.514 12.4657C12.5017 12.4569 12.4912 12.4457 12.4832 12.4328C12.4753 12.4199 12.4699 12.4056 12.4676 12.3906C12.4616 12.26 12.4631 12.1286 12.4616 11.9972C12.4601 11.8658 12.4578 11.7149 12.4556 11.5587L12.081 11.784C11.9859 11.8395 11.89 11.9341 11.7956 11.9341C11.7012 11.9341 11.5941 11.8373 11.4959 11.784C11.4787 11.7777 11.4642 11.7657 11.4547 11.75C11.4451 11.7343 11.4412 11.7158 11.4435 11.6976C11.4435 11.6068 11.4435 11.5159 11.4435 11.4251C11.4407 11.4016 11.4456 11.3778 11.4573 11.3573C11.469 11.3367 11.487 11.3205 11.5087 11.311C11.8001 11.1406 12.0892 10.9664 12.3807 10.796C12.4053 10.7847 12.4259 10.766 12.4393 10.7424C12.4528 10.7188 12.4585 10.6916 12.4556 10.6646C12.4473 10.2892 12.4451 9.9138 12.4413 9.53841C12.4413 9.50988 12.4413 9.48135 12.4413 9.44381C12.4159 9.45733 12.3964 9.46484 12.3792 9.47535C12.0428 9.6743 11.705 9.87476 11.3701 10.076C11.3512 10.0847 11.3355 10.0992 11.3252 10.1174C11.315 10.1356 11.3108 10.1566 11.3132 10.1773C11.3192 10.5174 11.3199 10.8575 11.3274 11.1976C11.3315 11.2261 11.3258 11.2552 11.3114 11.2801C11.297 11.305 11.2747 11.3243 11.248 11.335C11.1731 11.3718 11.1064 11.4221 11.0315 11.4589C11.0159 11.4654 10.9993 11.4687 10.9824 11.4687C10.9656 11.4687 10.9489 11.4654 10.9334 11.4589C10.8464 11.4176 10.7623 11.3705 10.6817 11.3177C10.6679 11.3075 10.6563 11.2946 10.6477 11.2798C10.639 11.2649 10.6335 11.2485 10.6315 11.2314C10.6255 11.0257 10.6255 10.8192 10.6232 10.6135C10.6232 10.5857 10.6232 10.5587 10.6232 10.5204C10.3813 10.6638 10.1528 10.7975 9.92654 10.9356C9.90848 10.9488 9.88671 10.9559 9.86437 10.9559C9.84202 10.9559 9.82025 10.9488 9.80219 10.9356C9.7108 10.8823 9.61491 10.835 9.52127 10.7854L9.50479 10.7584C9.50479 10.6488 9.50479 10.5399 9.51153 10.4311C9.5135 10.4128 9.51916 10.3951 9.52818 10.3791C9.53719 10.3631 9.54937 10.3491 9.56397 10.338C9.76473 10.2141 9.96775 10.0955 10.1708 9.97536L10.2674 9.91755C10.2322 9.89653 10.2105 9.88226 10.188 9.8695C10.0104 9.76965 9.8344 9.6683 9.65611 9.56919C9.63672 9.56146 9.62038 9.5476 9.60957 9.52971C9.59875 9.51183 9.59405 9.4909 9.59618 9.47009C9.59618 9.37925 9.59618 9.28765 9.59244 9.19681C9.58965 9.17582 9.59396 9.1545 9.60469 9.13626C9.61542 9.11802 9.63194 9.10392 9.65162 9.09621C9.72337 9.06014 9.79246 9.019 9.85837 8.97308C9.88056 8.95464 9.90831 8.94423 9.93713 8.94355C9.96595 8.94287 9.99416 8.95195 10.0172 8.96933C10.3086 9.1375 10.6037 9.30042 10.8959 9.46784C10.9149 9.48153 10.9377 9.48889 10.9611 9.48889C10.9845 9.48889 11.0073 9.48153 11.0262 9.46784C11.3566 9.26888 11.6885 9.07293 12.0203 8.87548C12.0398 8.86422 12.0578 8.84995 12.0765 8.83719C12.0705 8.82818 12.069 8.82293 12.0645 8.82067C11.7064 8.61797 11.3484 8.41451 10.988 8.21555C10.9715 8.21084 10.9542 8.20961 10.9372 8.21193C10.9202 8.21426 10.9038 8.22009 10.8892 8.22907C10.5895 8.40325 10.2924 8.57843 9.99771 8.75461C9.98081 8.76716 9.96032 8.77394 9.93928 8.77394C9.91824 8.77394 9.89775 8.76716 9.88085 8.75461C9.80144 8.70506 9.71679 8.66376 9.63813 8.61346C9.62533 8.60495 9.6144 8.5939 9.60602 8.58098C9.59765 8.56807 9.592 8.55357 9.58944 8.53838C9.58307 8.44214 9.58307 8.34558 9.58944 8.24934C9.59134 8.23102 9.5969 8.21328 9.60578 8.19715C9.61466 8.18103 9.62668 8.16686 9.64113 8.15549C9.73926 8.09017 9.84264 8.03312 9.94078 7.97305L10.2442 7.79287C10.2097 7.77185 10.188 7.75758 10.1655 7.74482C9.95351 7.62545 9.74226 7.50532 9.52876 7.3882C9.51112 7.38038 9.4964 7.36716 9.48671 7.35043C9.47702 7.33371 9.47286 7.31434 9.47483 7.29511C9.47483 7.18324 9.46883 7.06988 9.46509 6.95876L9.82466 6.74554L10.4352 7.0969L10.5895 7.18249C10.5895 7.02483 10.585 6.88218 10.5895 6.73653C10.5895 6.62542 10.5581 6.49253 10.6082 6.4092C10.6584 6.32586 10.7895 6.28532 10.8884 6.23202C10.9019 6.22606 10.9164 6.22298 10.9311 6.22298C10.9458 6.22298 10.9604 6.22606 10.9738 6.23202C11.0577 6.27331 11.1364 6.32511 11.2195 6.36715C11.2403 6.37529 11.2578 6.39008 11.2693 6.40923C11.2808 6.42838 11.2857 6.4508 11.2832 6.47301C11.2832 6.81837 11.2907 7.16447 11.2914 7.50983C11.2896 7.53185 11.2947 7.55389 11.3059 7.57288C11.3172 7.59186 11.3342 7.60683 11.3544 7.61569C11.693 7.80338 12.0286 7.99483 12.3687 8.18402C12.3881 8.19528 12.4091 8.20354 12.4308 8.21405C12.4333 8.20693 12.4353 8.19966 12.4368 8.19228C12.4323 7.77935 12.4293 7.36643 12.4219 6.95501C12.4188 6.93944 12.4124 6.92471 12.4033 6.91177C12.3941 6.89883 12.3823 6.88798 12.3687 6.87993C12.1439 6.7493 11.9125 6.62242 11.6847 6.49328C11.5896 6.43923 11.46 6.40319 11.4135 6.32061C11.3671 6.23802 11.3956 6.10138 11.3986 5.98877C11.4006 5.97186 11.4059 5.95552 11.4143 5.94069C11.4226 5.92587 11.4338 5.91286 11.4473 5.90243C11.5222 5.84912 11.6083 5.80708 11.687 5.75227C11.7027 5.74063 11.7217 5.73435 11.7413 5.73435C11.7608 5.73435 11.7799 5.74063 11.7956 5.75227C11.9791 5.85813 12.1634 5.96099 12.3477 6.06459C12.3664 6.0751 12.3874 6.08261 12.4151 6.09537C12.4151 5.99102 12.4151 5.89792 12.4151 5.80408C12.3994 5.60062 12.3949 5.40842 12.3904 5.21322Z" fill="black"/>
<path d="M14.5081 18.5334C14.3521 18.5335 14.1997 18.4873 14.0699 18.4006C13.9402 18.3138 13.8391 18.1905 13.7794 18.0461C13.7196 17.9018 13.704 17.7429 13.7343 17.5896C13.7647 17.4364 13.8398 17.2956 13.9501 17.1851C14.0603 17.0746 14.2008 16.9993 14.3537 16.9689C14.5067 16.9384 14.6652 16.9541 14.8092 17.014C14.9533 17.0739 15.0763 17.1752 15.1629 17.3052C15.2494 17.4352 15.2955 17.588 15.2954 17.7443C15.2952 17.9535 15.2122 18.1541 15.0646 18.302C14.917 18.45 14.7168 18.5332 14.5081 18.5334V18.5334ZM14.5081 17.227C14.406 17.227 14.3062 17.2574 14.2213 17.3142C14.1364 17.371 14.0703 17.4518 14.0312 17.5463C13.9921 17.6409 13.9819 17.7449 14.0018 17.8452C14.0217 17.9456 14.0709 18.0377 14.1431 18.1101C14.2153 18.1824 14.3072 18.2317 14.4074 18.2516C14.5075 18.2716 14.6113 18.2614 14.7056 18.2222C14.7999 18.1831 14.8805 18.1168 14.9372 18.0317C14.9939 17.9466 15.0242 17.8466 15.0242 17.7443C15.024 17.6072 14.9696 17.4757 14.8728 17.3787C14.7761 17.2818 14.6449 17.2272 14.5081 17.227V17.227Z" fill="#FFEF62"/>
<path d="M10.6831 18.5334C10.5272 18.5335 10.3747 18.4873 10.245 18.4006C10.1153 18.3138 10.0142 18.1905 9.95442 18.0461C9.89468 17.9018 9.87901 17.7429 9.90939 17.5896C9.93978 17.4364 10.0148 17.2956 10.1251 17.1851C10.2354 17.0746 10.3759 16.9993 10.5288 16.9689C10.6817 16.9384 10.8403 16.9541 10.9843 17.014C11.1283 17.0739 11.2514 17.1752 11.3379 17.3052C11.4245 17.4352 11.4706 17.588 11.4704 17.7443C11.4702 17.9535 11.3872 18.1541 11.2396 18.302C11.092 18.45 10.8919 18.5332 10.6831 18.5334V18.5334ZM10.6831 17.227C10.581 17.227 10.4812 17.2574 10.3964 17.3142C10.3115 17.371 10.2453 17.4518 10.2063 17.5463C10.1672 17.6409 10.157 17.7449 10.1769 17.8452C10.1968 17.9456 10.246 18.0377 10.3181 18.1101C10.3903 18.1824 10.4823 18.2317 10.5824 18.2516C10.6825 18.2716 10.7863 18.2614 10.8806 18.2222C10.9749 18.1831 11.0555 18.1168 11.1123 18.0317C11.169 17.9466 11.1992 17.8466 11.1992 17.7443C11.199 17.6072 11.1446 17.4757 11.0479 17.3787C10.9511 17.2818 10.8199 17.2272 10.6831 17.227Z" fill="#FFEF62"/>
<path d="M14.5096 17.9734C14.6358 17.9734 14.7381 17.8708 14.7381 17.7444C14.7381 17.6179 14.6358 17.5154 14.5096 17.5154C14.3834 17.5154 14.2811 17.6179 14.2811 17.7444C14.2811 17.8708 14.3834 17.9734 14.5096 17.9734Z" fill="#FFEF62"/>
<path d="M10.6831 17.9734C10.8093 17.9734 10.9116 17.8708 10.9116 17.7444C10.9116 17.6179 10.8093 17.5154 10.6831 17.5154C10.5569 17.5154 10.4546 17.6179 10.4546 17.7444C10.4546 17.8708 10.5569 17.9734 10.6831 17.9734Z" fill="#FFEF62"/>
</svg>
