<svg width="26" height="30" viewBox="0 0 26 30" fill="none" xmlns="http://www.w3.org/2000/svg">
<path d="M25.5373 12.7687C25.5373 19.3615 19.3799 24.7873 13.9011 28.7039C13.2234 29.1883 12.3139 29.1883 11.6363 28.7039C6.15737 24.7873 0 19.3615 0 12.7687C0 5.71672 5.71672 0 12.7687 0C19.8206 0 25.5373 5.71672 25.5373 12.7687Z" fill="#3163AE"/>
<circle cx="12.7687" cy="12.7687" r="10.0075" fill="#FFEF62" stroke="#FFFCE2" stroke-width="2"/>
<path d="M7.78317 15.2057C7.70386 13.7609 7.81806 12.3415 8.259 10.9723C7.56983 10.3994 7.49132 10.1297 7.80934 9.3015C7.93258 9.00554 8.07292 8.71703 8.22966 8.43747C8.48027 7.9601 8.87601 7.69278 9.41925 7.69835C9.58505 7.70001 9.74952 7.66857 9.90309 7.60588C10.0567 7.54319 10.1963 7.45049 10.3138 7.33316C10.6794 7.0014 11.0704 6.69668 11.4661 6.39992C12.0387 5.97029 12.6351 5.90505 13.2355 6.35377C13.7486 6.73805 14.276 7.10562 14.7613 7.52252C15.022 7.748 15.3436 7.89062 15.6852 7.93226C16.9208 8.11604 17.6568 9.23069 17.338 10.4631C17.2753 10.7018 17.0818 10.9102 16.9081 11.1998C17.2801 12.363 17.4339 13.6567 17.4371 14.9734C17.4371 15.0808 17.5719 15.1922 17.6536 15.2916C17.8122 15.4905 18.0636 15.6616 18.1239 15.886C18.2579 16.3824 18.0446 16.6243 17.5394 16.575C16.4125 16.466 15.3474 16.8375 14.2522 16.9624C12.8453 17.1215 11.4598 17.042 10.068 16.824C9.29633 16.7022 8.50961 16.6728 7.72924 16.6131C7.47704 16.594 7.21851 16.6505 7.13761 16.2949C7.05672 15.9393 7.0472 15.625 7.38188 15.4014C7.51077 15.3266 7.64488 15.2612 7.78317 15.2057ZM9.09056 11.5461C8.675 12.7889 8.5287 13.7851 8.59056 15.0461C8.61118 15.4543 8.50453 15.7117 7.99141 15.8128C7.89625 15.8319 7.61753 15.8846 7.59056 16.0461C7.58422 16.0819 7.97002 16.0358 8.09056 16.0461C8.72501 16.1082 9.06533 16.1883 9.69026 16.2949C11.251 16.5654 12.5124 16.761 14.0906 16.5461C15.1564 16.4013 16.3395 16.0558 17.4371 16.1473C17.7694 16.1752 17.6266 15.9822 17.5394 15.8128C17.4807 15.6982 17.2175 15.6074 17.0906 15.5461C16.8598 15.4356 16.9693 15.2391 16.955 14.9734C16.8987 14.0672 16.696 13.4476 16.5906 12.5461C16.5454 12.1754 16.1968 11.9376 16.0906 11.5461C13.3743 12.3147 11.7164 12.6107 9.09056 11.5461ZM16.5001 9C16.5389 8.93874 16.5001 8.67774 16.5001 9C16.2447 9.3978 15.7764 9.33453 15.3331 9.37749C14.7891 9.4308 14.1354 9.52784 13.5906 9.54614C11.8506 9.60343 8.96404 8.73423 8.70153 8.84959C8.43903 8.96496 8.37558 9.23665 8.259 9.54614C7.96636 10.3235 7.92592 10.448 8.70153 10.7583C8.83715 10.8124 8.97672 10.8593 9.11472 10.9078C11.6287 11.7957 14.13 11.5189 16.6195 10.8036C16.7781 10.7575 16.9771 10.5649 17.0096 10.4058C17.15 9.7176 16.5001 9.32226 16.5001 9ZM15.5774 8.84959C15.4711 8.68172 15.4259 8.54647 15.3331 8.47168C14.5242 7.81849 13.7113 7.16927 12.8897 6.53199C12.6097 6.31479 12.2552 6.2933 11.9856 6.49141C11.1235 7.1279 10.2892 7.80576 9.4478 8.46611L9.51839 8.5942C11.482 9.10339 13.4678 9.24899 15.5774 8.84959Z" fill="black"/>
<path d="M16.1047 15.4834C16.0746 15.484 16.0449 15.476 16.0191 15.4603C15.9934 15.4445 15.9726 15.4218 15.9593 15.3946C15.946 15.3675 15.9407 15.3371 15.9439 15.307C15.9472 15.277 15.959 15.2485 15.9778 15.2249C15.9953 15.2018 16.3617 14.7014 16.1221 13.827C16.1109 13.7858 16.1164 13.7419 16.1374 13.7048C16.1585 13.6677 16.1934 13.6406 16.2344 13.6293C16.2754 13.618 16.3192 13.6235 16.3561 13.6446C16.3931 13.6657 16.4202 13.7007 16.4314 13.7418C16.7154 14.7809 16.2514 15.3959 16.2316 15.4214C16.2167 15.4409 16.1974 15.4566 16.1754 15.4674C16.1534 15.4781 16.1292 15.4836 16.1047 15.4834Z" fill="black"/>
<path d="M9.65869 14.8585C9.62277 14.8597 9.58752 14.8486 9.55871 14.8271C9.52989 14.8055 9.50922 14.7748 9.50008 14.7399C9.21616 13.7056 9.68089 13.0867 9.70072 13.0612C9.7267 13.0274 9.76498 13.0054 9.80714 13C9.84931 12.9945 9.8919 13.0061 9.92555 13.0322C9.95921 13.0582 9.98116 13.0966 9.98659 13.1389C9.99202 13.1812 9.98048 13.224 9.9545 13.2577C9.93785 13.28 9.57066 13.7804 9.80937 14.6548C9.81525 14.6752 9.81701 14.6965 9.81455 14.7176C9.81209 14.7387 9.80546 14.759 9.79504 14.7775C9.78462 14.7959 9.77063 14.8121 9.75389 14.8251C9.73715 14.838 9.71799 14.8475 9.69755 14.8529C9.68488 14.8564 9.67182 14.8582 9.65869 14.8585Z" fill="black"/>
<path d="M12.1901 8.42559C12.283 8.42559 12.3582 8.35008 12.3582 8.25693C12.3582 8.16377 12.283 8.08826 12.1901 8.08826C12.0972 8.08826 12.022 8.16377 12.022 8.25693C12.022 8.35008 12.0972 8.42559 12.1901 8.42559Z" fill="black"/>
<path d="M13.0038 7.60919C13.0967 7.60919 13.172 7.53367 13.172 7.44052C13.172 7.34737 13.0967 7.27185 13.0038 7.27185C12.911 7.27185 12.8357 7.34737 12.8357 7.44052C12.8357 7.53367 12.911 7.60919 13.0038 7.60919Z" fill="black"/>
<path d="M14.0205 8.42559C14.1134 8.42559 14.1887 8.35008 14.1887 8.25693C14.1887 8.16377 14.1134 8.08826 14.0205 8.08826C13.9277 8.08826 13.8524 8.16377 13.8524 8.25693C13.8524 8.35008 13.9277 8.42559 14.0205 8.42559Z" fill="black"/>
<path d="M10.7238 8.42559C10.8166 8.42559 10.8919 8.35008 10.8919 8.25693C10.8919 8.16377 10.8166 8.08826 10.7238 8.08826C10.6309 8.08826 10.5557 8.16377 10.5557 8.25693C10.5557 8.35008 10.6309 8.42559 10.7238 8.42559Z" fill="black"/>
<path d="M13.1719 8.37625C13.2376 8.37625 13.2909 8.32282 13.2909 8.25691C13.2909 8.191 13.2376 8.13757 13.1719 8.13757C13.1062 8.13757 13.053 8.191 13.053 8.25691C13.053 8.32282 13.1062 8.37625 13.1719 8.37625Z" fill="black"/>
<path d="M11.4351 8.20755C11.5008 8.20755 11.5541 8.15412 11.5541 8.08821C11.5541 8.0223 11.5008 7.96887 11.4351 7.96887C11.3694 7.96887 11.3162 8.0223 11.3162 8.08821C11.3162 8.15412 11.3694 8.20755 11.4351 8.20755Z" fill="black"/>
<path d="M11.6429 7.60919C11.7357 7.60919 11.811 7.53367 11.811 7.44052C11.811 7.34737 11.7357 7.27185 11.6429 7.27185C11.55 7.27185 11.4747 7.34737 11.4747 7.44052C11.4747 7.53367 11.55 7.60919 11.6429 7.60919Z" fill="black"/>
</svg>
