<svg width="26" height="30" viewBox="0 0 26 30" fill="none" xmlns="http://www.w3.org/2000/svg">
<path d="M25.5373 12.7687C25.5373 19.3615 19.3799 24.7873 13.9011 28.7039C13.2234 29.1883 12.3139 29.1883 11.6363 28.7039C6.15737 24.7873 0 19.3615 0 12.7687C0 5.71672 5.71672 0 12.7687 0C19.8206 0 25.5373 5.71672 25.5373 12.7687Z" fill="#3163AE"/>
<circle cx="12.7687" cy="12.7687" r="10.0075" fill="#FFEF62" stroke="#FFFCE2" stroke-width="2"/>
<path d="M11.5421 8.11081L15.5934 17.0417H6.12474L10.1761 8.1108C10.4423 7.52392 11.2759 7.52392 11.5421 8.11081Z" fill="#FFEF62" stroke="black" stroke-width="0.5"/>
<path d="M11.0527 12.5484L10.8778 12.4524C10.8672 12.4591 10.857 12.4665 10.846 12.4724C10.802 12.4957 10.7406 12.5097 10.7182 12.5428C10.6958 12.5759 10.7102 12.6364 10.7091 12.6835C10.7091 12.7665 10.7068 12.8492 10.7057 12.9392C10.6408 12.9041 10.582 12.871 10.5229 12.839C10.477 12.814 10.43 12.7686 10.3841 12.7707C10.3382 12.7728 10.2859 12.8144 10.2362 12.8376C10.2276 12.8401 10.2203 12.8454 10.2156 12.8525C10.2109 12.8596 10.209 12.868 10.2104 12.8763C10.2104 12.9174 10.2104 12.9586 10.2104 12.9994C10.2089 13.01 10.2113 13.0208 10.217 13.0302C10.2228 13.0395 10.2316 13.0468 10.2422 13.0511C10.3841 13.1278 10.5248 13.2062 10.6666 13.2829C10.6789 13.2878 10.6892 13.2962 10.696 13.3069C10.7028 13.3176 10.7058 13.33 10.7045 13.3423C10.7004 13.5112 10.6996 13.6804 10.6973 13.8492C10.6973 13.8622 10.6973 13.8753 10.6973 13.8921C10.6856 13.8869 10.6776 13.8837 10.6704 13.8798C10.5043 13.7887 10.3386 13.6969 10.1717 13.6065C10.1633 13.6024 10.1565 13.5959 10.1522 13.5881C10.1479 13.5802 10.1464 13.5713 10.1478 13.5625C10.1501 13.4057 10.1512 13.2488 10.1539 13.0919C10.1554 13.0831 10.1538 13.074 10.1493 13.0662C10.1448 13.0583 10.1376 13.052 10.1288 13.0483C10.0886 13.0282 10.053 13.004 10.0105 12.985C10.0029 12.982 9.99471 12.9805 9.98644 12.9805C9.97818 12.9805 9.96999 12.982 9.96236 12.985C9.92008 13.0037 9.87916 13.025 9.83987 13.0486C9.8332 13.0532 9.82761 13.059 9.82343 13.0657C9.81926 13.0723 9.81659 13.0797 9.8156 13.0873C9.81256 13.1802 9.81256 13.2734 9.81142 13.3663C9.81142 13.3786 9.81142 13.3909 9.81142 13.4081C9.69348 13.3434 9.58198 13.2829 9.47011 13.221C9.46127 13.2151 9.45066 13.2119 9.43977 13.2119C9.42888 13.2119 9.41827 13.2151 9.40943 13.221C9.36506 13.2453 9.31841 13.2667 9.2729 13.2892L9.26494 13.3015C9.26494 13.3508 9.26494 13.4 9.26797 13.4489C9.26897 13.4572 9.27176 13.4652 9.27619 13.4725C9.28063 13.4797 9.2866 13.4861 9.29376 13.4911C9.38895 13.5457 9.48604 13.5967 9.58236 13.6508L9.63621 13.6807C9.61915 13.6902 9.60853 13.6966 9.59829 13.7022C9.51182 13.7472 9.42612 13.793 9.33927 13.8366C9.32979 13.8401 9.32181 13.8464 9.31654 13.8545C9.31127 13.8627 9.309 13.8722 9.31007 13.8816C9.31007 13.9224 9.31007 13.9636 9.30817 14.0047C9.30688 14.0141 9.30901 14.0237 9.31424 14.0318C9.31946 14.04 9.32747 14.0463 9.337 14.0497C9.37185 14.0663 9.40554 14.0848 9.43787 14.1053C9.44869 14.1132 9.46205 14.1175 9.4758 14.1175C9.48955 14.1175 9.5029 14.1132 9.51372 14.1053C9.65594 14.0293 9.79967 13.9562 9.94188 13.8805C9.95121 13.8745 9.96233 13.8712 9.97374 13.8712C9.98514 13.8712 9.99627 13.8745 10.0056 13.8805C10.1664 13.9702 10.3283 14.0585 10.4899 14.1475C10.4994 14.1528 10.5081 14.1591 10.521 14.1672C10.5066 14.1753 10.4956 14.1816 10.4831 14.1873C10.3219 14.2713 10.1607 14.3547 9.99991 14.4398C9.9902 14.4464 9.97852 14.4499 9.96653 14.4499C9.95455 14.4499 9.94287 14.4464 9.93316 14.4398C9.79019 14.36 9.64608 14.2819 9.5031 14.202C9.49477 14.1965 9.48475 14.1935 9.47447 14.1935C9.46419 14.1935 9.45417 14.1965 9.44584 14.202C9.40791 14.2242 9.36733 14.2453 9.32676 14.2643C9.31856 14.2674 9.31172 14.273 9.30733 14.2801C9.30293 14.2873 9.30123 14.2956 9.30248 14.3037C9.30248 14.3449 9.30248 14.386 9.30248 14.4268C9.30094 14.4369 9.30296 14.4471 9.30822 14.456C9.31349 14.4648 9.32172 14.4719 9.33169 14.4761C9.40564 14.5148 9.47769 14.5556 9.55089 14.5957L9.62484 14.6365L9.58691 14.6579C9.48376 14.7117 9.38061 14.7659 9.27707 14.8187C9.26833 14.8222 9.26101 14.8281 9.25617 14.8357C9.25133 14.8433 9.24922 14.8521 9.25015 14.8609C9.25015 14.9112 9.24749 14.9618 9.24598 15.0122L9.42081 15.1085C9.52017 15.0558 9.61915 15.003 9.71851 14.9502C9.74164 14.9379 9.76516 14.926 9.79436 14.9115C9.79436 14.9819 9.79208 15.0477 9.79436 15.1124C9.79436 15.1627 9.77919 15.2225 9.80346 15.2601C9.82773 15.2978 9.89182 15.3161 9.93999 15.3403C9.95334 15.3455 9.96834 15.3455 9.9817 15.3403C10.0227 15.3217 10.0606 15.2981 10.1015 15.2791C10.1116 15.2755 10.1201 15.2688 10.1256 15.2602C10.1312 15.2517 10.1335 15.2416 10.1323 15.2316C10.1323 15.0758 10.1361 14.92 10.1364 14.7642C10.1354 14.7542 10.1379 14.7443 10.1434 14.7357C10.1489 14.7272 10.1572 14.7205 10.1672 14.7167C10.332 14.6315 10.4963 14.546 10.6602 14.4599C10.6696 14.455 10.6799 14.4514 10.6935 14.4455C10.6913 14.6393 10.6897 14.8289 10.686 15.0181C10.686 15.0287 10.6715 15.0424 10.6602 15.0487C10.5494 15.1075 10.4375 15.1645 10.3268 15.2229C10.2798 15.2478 10.2168 15.2661 10.1937 15.3045C10.1706 15.3428 10.1857 15.4033 10.1872 15.454C10.1877 15.4609 10.1898 15.4676 10.1933 15.4736C10.1968 15.4797 10.2018 15.485 10.2077 15.4891C10.2457 15.512 10.2836 15.5303 10.3215 15.5532C10.3311 15.56 10.3428 15.5637 10.3549 15.5637C10.367 15.5637 10.3787 15.56 10.3882 15.5532C10.4834 15.5014 10.5801 15.4522 10.6825 15.3991C10.6825 15.4293 10.6825 15.454 10.6825 15.4789C10.6806 15.5845 10.678 15.69 10.6757 15.7955L10.843 15.8937C10.8911 15.8676 10.9397 15.8423 10.9867 15.8142C10.9929 15.8101 10.9981 15.8048 11.002 15.7988C11.0059 15.7927 11.0084 15.786 11.0094 15.779C11.0121 15.7199 11.0094 15.6608 11.0121 15.6031C11.0148 15.5454 11.0121 15.4758 11.0151 15.4054L11.1979 15.5057C11.2438 15.5306 11.2908 15.576 11.3367 15.5739C11.3826 15.5718 11.4349 15.5299 11.4846 15.5067C11.4932 15.5042 11.5005 15.4989 11.5052 15.4918C11.5099 15.4847 11.5118 15.4763 11.5104 15.468C11.5104 15.4272 11.5104 15.3857 11.5104 15.3449C11.5117 15.3343 11.5093 15.3236 11.5036 15.3144C11.4979 15.3051 11.4891 15.2978 11.4786 15.2936C11.3367 15.2169 11.196 15.1381 11.0538 15.0614C11.0415 15.0566 11.0312 15.0483 11.0244 15.0376C11.0176 15.027 11.0146 15.0146 11.0159 15.0023C11.0197 14.8331 11.0208 14.6643 11.0227 14.4951C11.0227 14.4824 11.0227 14.4694 11.0227 14.4525C11.0352 14.4585 11.0447 14.462 11.0531 14.4666C11.2169 14.5563 11.3803 14.6467 11.5461 14.736C11.5553 14.74 11.5629 14.7466 11.5678 14.7548C11.5728 14.763 11.5749 14.7724 11.5737 14.7817C11.5711 14.9351 11.5707 15.0885 11.5669 15.2419C11.5648 15.2546 11.5674 15.2677 11.5743 15.2789C11.5812 15.2902 11.5919 15.2989 11.6048 15.3038C11.6428 15.3203 11.6735 15.3432 11.7099 15.3597C11.7175 15.3626 11.7257 15.3642 11.734 15.3642C11.7422 15.3642 11.7504 15.3626 11.7581 15.3597C11.8004 15.341 11.8413 15.3198 11.8806 15.296C11.8873 15.2915 11.8929 15.2857 11.8971 15.2791C11.9013 15.2724 11.9039 15.265 11.9048 15.2573C11.9079 15.1645 11.9079 15.0716 11.909 14.9787C11.909 14.9664 11.909 14.9541 11.909 14.9365C12.0269 15.0012 12.1365 15.0617 12.2503 15.124C12.2591 15.1299 12.2696 15.1331 12.2805 15.1331C12.2913 15.1331 12.3019 15.1299 12.3106 15.124C12.3554 15.0997 12.4016 15.0786 12.4475 15.0561L12.4555 15.0435C12.4555 14.9946 12.4555 14.945 12.4521 14.8961C12.4512 14.8878 12.4485 14.8799 12.4441 14.8727C12.4397 14.8655 12.4338 14.8592 12.4267 14.8542C12.3292 14.7983 12.2298 14.7448 12.1312 14.6906L12.0842 14.6646L12.1221 14.6428C12.2082 14.5978 12.2943 14.5524 12.3812 14.5084C12.3906 14.505 12.3986 14.4987 12.4038 14.4906C12.4091 14.4826 12.4114 14.4731 12.4104 14.4638C12.4104 14.4226 12.4104 14.3814 12.4104 14.3406C12.4115 14.3312 12.4094 14.3217 12.4042 14.3135C12.399 14.3053 12.391 14.2989 12.3815 14.2953C12.3466 14.2789 12.3129 14.2603 12.2807 14.2397C12.2698 14.232 12.2564 14.2278 12.2427 14.2278C12.229 14.2278 12.2157 14.232 12.2048 14.2397C12.063 14.3157 11.9192 14.3892 11.7766 14.4645C11.7674 14.4706 11.7563 14.4739 11.745 14.4739C11.7336 14.4739 11.7225 14.4706 11.7133 14.4645C11.5521 14.3748 11.3906 14.2865 11.229 14.1975C11.2195 14.1922 11.2102 14.1864 11.2013 14.1802C11.2044 14.1764 11.2055 14.1736 11.2074 14.1729C11.3819 14.0814 11.5563 13.9896 11.7319 13.8999C11.74 13.8978 11.7484 13.8972 11.7567 13.8983C11.765 13.8994 11.773 13.9021 11.7801 13.9062C11.9252 13.9845 12.0699 14.0639 12.2143 14.1444C12.2225 14.15 12.2325 14.1531 12.2427 14.1531C12.253 14.1531 12.2629 14.15 12.2712 14.1444C12.3091 14.1222 12.3512 14.1039 12.3895 14.081C12.3959 14.077 12.4013 14.0718 12.4054 14.0657C12.4095 14.0597 12.4122 14.0529 12.4134 14.0459C12.4164 14.0025 12.4164 13.9591 12.4134 13.9157C12.4125 13.9075 12.4098 13.8995 12.4055 13.8922C12.4012 13.885 12.3954 13.8786 12.3884 13.8735C12.3406 13.844 12.2901 13.8183 12.2408 13.7912L12.0929 13.7099C12.1096 13.7004 12.1202 13.6941 12.1309 13.6885C12.2344 13.6347 12.3372 13.5801 12.4411 13.5274C12.4498 13.524 12.4571 13.5181 12.4619 13.5105C12.4667 13.503 12.4687 13.4942 12.4676 13.4855C12.4676 13.4349 12.4707 13.3846 12.4722 13.3339L12.3042 13.2368L12.0068 13.3951C11.9837 13.4074 11.9598 13.4194 11.931 13.4338C11.931 13.3635 11.9333 13.2977 11.9329 13.2329C11.9329 13.1826 11.9481 13.1228 11.9238 13.0852C11.8995 13.0476 11.8354 13.0293 11.7873 13.005C11.7807 13.0023 11.7736 13.0009 11.7664 13.0009C11.7592 13.0009 11.7521 13.0023 11.7455 13.005C11.7046 13.0237 11.6663 13.0469 11.6257 13.0659C11.6156 13.0696 11.6071 13.0763 11.6015 13.085C11.5959 13.0936 11.5935 13.1037 11.5946 13.1137C11.5946 13.2695 11.5912 13.425 11.5908 13.5808C11.5918 13.5908 11.5893 13.6008 11.5838 13.6094C11.5783 13.618 11.57 13.6247 11.5601 13.6287C11.3951 13.7135 11.2305 13.7996 11.0671 13.8851C11.0576 13.89 11.0474 13.8939 11.0367 13.8985C11.0355 13.8953 11.0346 13.892 11.0341 13.8886C11.036 13.7025 11.0375 13.5168 11.0413 13.3307C11.0425 13.3235 11.0454 13.3165 11.0499 13.3104C11.0543 13.3043 11.0602 13.2992 11.0671 13.2956C11.1774 13.2365 11.2893 13.1791 11.4004 13.1197C11.4467 13.0954 11.51 13.0792 11.5324 13.0419C11.5548 13.0047 11.5415 12.9431 11.5396 12.8924C11.5388 12.8848 11.5362 12.8774 11.5322 12.8707C11.5282 12.864 11.5227 12.8581 11.5161 12.8534C11.4782 12.8295 11.4376 12.8105 11.3993 12.7873C11.3916 12.7821 11.3823 12.7793 11.3728 12.7793C11.3632 12.7793 11.3539 12.7821 11.3462 12.7873C11.2571 12.8348 11.1672 12.8812 11.0773 12.928C11.0682 12.9329 11.058 12.9364 11.0447 12.942C11.0447 12.8953 11.0447 12.853 11.0447 12.8108C11.047 12.7243 11.0493 12.6364 11.0527 12.5484Z" fill="black"/>
<path d="M8.78821 10.6964C8.78821 10.6964 9.39331 10.9089 9.65746 10.6964C9.9216 10.4839 10.162 10.0088 10.9782 10.5552C11.7943 11.1016 11.6706 10.4909 12.1315 10.7576C12.5924 11.0243 12.8272 10.6964 12.8272 10.6964" stroke="black" stroke-width="0.5"/>
<path d="M16.3814 9.91989L19.6121 17.0416H11.7848L15.0154 9.91989C15.2817 9.333 16.1152 9.333 16.3814 9.91989Z" fill="#FFEF62" stroke="black" stroke-width="0.5"/>
<path d="M15.8612 13.3083L15.7143 13.2277C15.7054 13.2333 15.6968 13.2395 15.6876 13.2445C15.6506 13.264 15.599 13.2758 15.5803 13.3036C15.5615 13.3313 15.5736 13.3822 15.5726 13.4217C15.5726 13.4915 15.5707 13.5609 15.5697 13.6365C15.5153 13.607 15.4659 13.5792 15.4162 13.5523C15.3777 13.5313 15.3382 13.4932 15.2997 13.495C15.2611 13.4968 15.2172 13.5316 15.1755 13.5511C15.1683 13.5533 15.1622 13.5577 15.1582 13.5637C15.1543 13.5696 15.1527 13.5767 15.1538 13.5836C15.1538 13.6182 15.1538 13.6527 15.1538 13.687C15.1526 13.696 15.1546 13.705 15.1594 13.7129C15.1642 13.7207 15.1716 13.7269 15.1806 13.7304C15.2997 13.7948 15.4178 13.8607 15.5369 13.9251C15.5473 13.9292 15.5559 13.9363 15.5616 13.9453C15.5673 13.9542 15.5699 13.9647 15.5688 13.975C15.5653 14.1168 15.5647 14.2589 15.5627 14.4007C15.5627 14.4116 15.5627 14.4226 15.5627 14.4367C15.5529 14.4323 15.5462 14.4297 15.5401 14.4264C15.4006 14.3499 15.2615 14.2728 15.1213 14.1969C15.1143 14.1934 15.1086 14.188 15.105 14.1814C15.1014 14.1748 15.1001 14.1673 15.1013 14.1599C15.1032 14.0282 15.1041 13.8965 15.1064 13.7647C15.1077 13.7573 15.1063 13.7497 15.1025 13.7431C15.0987 13.7365 15.0927 13.7312 15.0853 13.7281C15.0516 13.7112 15.0216 13.6909 14.986 13.6749C14.9796 13.6724 14.9727 13.6711 14.9658 13.6711C14.9588 13.6711 14.9519 13.6724 14.9455 13.6749C14.91 13.6906 14.8757 13.7085 14.8427 13.7284C14.8371 13.7322 14.8324 13.7371 14.8289 13.7427C14.8254 13.7483 14.8231 13.7544 14.8223 13.7609C14.8197 13.8388 14.8197 13.9171 14.8188 13.9951C14.8188 14.0055 14.8188 14.0158 14.8188 14.0303C14.7197 13.9759 14.6261 13.9251 14.5321 13.8731C14.5247 13.8682 14.5158 13.8655 14.5067 13.8655C14.4975 13.8655 14.4886 13.8682 14.4812 13.8731C14.4439 13.8935 14.4048 13.9115 14.3665 13.9304L14.3598 13.9408C14.3598 13.9821 14.3598 14.0235 14.3624 14.0645C14.3632 14.0715 14.3656 14.0782 14.3693 14.0843C14.373 14.0904 14.378 14.0957 14.3841 14.1C14.464 14.1458 14.5455 14.1886 14.6264 14.2341L14.6716 14.2592C14.6573 14.2672 14.6484 14.2725 14.6398 14.2772C14.5672 14.315 14.4952 14.3534 14.4223 14.3901C14.4143 14.393 14.4076 14.3983 14.4032 14.4052C14.3988 14.412 14.3969 14.42 14.3977 14.4279C14.3977 14.4621 14.3977 14.4967 14.3962 14.5313C14.3951 14.5392 14.3969 14.5472 14.4012 14.554C14.4056 14.5609 14.4124 14.5662 14.4204 14.5691C14.4496 14.583 14.4779 14.5986 14.5051 14.6158C14.5142 14.6224 14.5254 14.626 14.5369 14.626C14.5485 14.626 14.5597 14.6224 14.5688 14.6158C14.6882 14.5519 14.8089 14.4905 14.9283 14.427C14.9362 14.4219 14.9455 14.4191 14.9551 14.4191C14.9647 14.4191 14.974 14.4219 14.9818 14.427C15.1169 14.5023 15.2529 14.5765 15.3885 14.6512C15.3965 14.6556 15.4038 14.661 15.4147 14.6677C15.4025 14.6745 15.3933 14.6799 15.3828 14.6846C15.2474 14.7552 15.1121 14.8252 14.9771 14.8967C14.9689 14.9022 14.9591 14.9051 14.949 14.9051C14.939 14.9051 14.9292 14.9022 14.921 14.8967C14.8009 14.8296 14.6799 14.764 14.5599 14.697C14.5529 14.6923 14.5444 14.6898 14.5358 14.6898C14.5272 14.6898 14.5188 14.6923 14.5118 14.697C14.4799 14.7156 14.4458 14.7333 14.4118 14.7493C14.4049 14.7519 14.3991 14.7566 14.3954 14.7626C14.3918 14.7686 14.3903 14.7755 14.3914 14.7824C14.3914 14.8169 14.3914 14.8515 14.3914 14.8858C14.3901 14.8942 14.3918 14.9028 14.3962 14.9102C14.4006 14.9177 14.4075 14.9236 14.4159 14.9271C14.478 14.9596 14.5385 14.9939 14.6 15.0275L14.6621 15.0618L14.6302 15.0798C14.5436 15.125 14.457 15.1705 14.37 15.2148C14.3627 15.2177 14.3566 15.2228 14.3525 15.2291C14.3484 15.2355 14.3466 15.2429 14.3474 15.2503C14.3474 15.2925 14.3452 15.3351 14.3439 15.3773L14.4907 15.4582C14.5742 15.4139 14.6573 15.3696 14.7408 15.3253C14.7602 15.315 14.7799 15.3049 14.8044 15.2928C14.8044 15.3519 14.8025 15.4071 14.8044 15.4615C14.8044 15.5037 14.7917 15.554 14.8121 15.5856C14.8325 15.6172 14.8863 15.6325 14.9267 15.6529C14.938 15.6572 14.9506 15.6572 14.9618 15.6529C14.9962 15.6373 15.028 15.6175 15.0624 15.6015C15.0709 15.5984 15.078 15.5929 15.0826 15.5856C15.0873 15.5784 15.0893 15.57 15.0882 15.5616C15.0882 15.4308 15.0914 15.2999 15.0917 15.169C15.0909 15.1607 15.0929 15.1524 15.0976 15.1452C15.1022 15.138 15.1092 15.1324 15.1175 15.1292C15.2559 15.0577 15.3939 14.9858 15.5315 14.9135C15.5395 14.9094 15.5481 14.9064 15.5596 14.9014C15.5576 15.0642 15.5564 15.2234 15.5532 15.3823C15.5532 15.3912 15.5411 15.4027 15.5315 15.408C15.4385 15.4574 15.3446 15.5052 15.2516 15.5542C15.2121 15.5752 15.1592 15.5906 15.1398 15.6228C15.1204 15.655 15.1331 15.7058 15.1344 15.7483C15.1348 15.7541 15.1365 15.7598 15.1395 15.7649C15.1424 15.77 15.1466 15.7744 15.1516 15.7779C15.1834 15.7971 15.2153 15.8124 15.2471 15.8316C15.2552 15.8374 15.265 15.8405 15.2752 15.8405C15.2853 15.8405 15.2952 15.8374 15.3032 15.8316C15.3831 15.7882 15.4643 15.7468 15.5503 15.7022C15.5503 15.7276 15.5503 15.7483 15.5503 15.7693C15.5487 15.8579 15.5465 15.9465 15.5446 16.0352L15.685 16.1176C15.7255 16.0957 15.7663 16.0744 15.8057 16.0508C15.8109 16.0474 15.8153 16.043 15.8186 16.0379C15.8219 16.0328 15.824 16.0271 15.8249 16.0213C15.8271 15.9716 15.8249 15.922 15.8271 15.8736C15.8293 15.8251 15.8271 15.7666 15.8296 15.7076L15.9831 15.7917C16.0217 15.8127 16.0612 15.8508 16.0997 15.8491C16.1382 15.8473 16.1822 15.8121 16.2239 15.7926C16.2311 15.7905 16.2372 15.786 16.2412 15.7801C16.2451 15.7741 16.2467 15.7671 16.2456 15.7601C16.2456 15.7259 16.2456 15.691 16.2456 15.6568C16.2466 15.6479 16.2446 15.6389 16.2398 15.6311C16.235 15.6234 16.2276 15.6172 16.2188 15.6136C16.0997 15.5492 15.9815 15.4831 15.8621 15.4187C15.8518 15.4146 15.8431 15.4076 15.8374 15.3987C15.8317 15.3898 15.8292 15.3794 15.8303 15.369C15.8334 15.2269 15.8344 15.0851 15.836 14.9431C15.836 14.9324 15.836 14.9215 15.836 14.9073C15.8465 14.9123 15.8545 14.9153 15.8615 14.9191C15.9991 14.9945 16.1363 15.0704 16.2755 15.1454C16.2832 15.1488 16.2896 15.1543 16.2938 15.1611C16.2979 15.168 16.2997 15.176 16.2987 15.1838C16.2965 15.3126 16.2962 15.4414 16.293 15.5702C16.2912 15.5809 16.2934 15.5919 16.2992 15.6013C16.305 15.6108 16.314 15.6181 16.3249 15.6222C16.3567 15.6361 16.3825 15.6553 16.4131 15.6692C16.4195 15.6716 16.4264 15.6729 16.4333 15.6729C16.4402 15.6729 16.4471 15.6716 16.4535 15.6692C16.4891 15.6535 16.5234 15.6356 16.5564 15.6157C16.5621 15.6119 16.5668 15.607 16.5703 15.6014C16.5738 15.5958 16.576 15.5896 16.5768 15.5832C16.5793 15.5052 16.5793 15.4272 16.5803 15.3492C16.5803 15.3389 16.5803 15.3286 16.5803 15.3138C16.6793 15.3681 16.7714 15.419 16.8669 15.4712C16.8743 15.4762 16.8831 15.4789 16.8922 15.4789C16.9013 15.4789 16.9102 15.4762 16.9176 15.4712C16.9551 15.4509 16.994 15.4331 17.0325 15.4142L17.0392 15.4036C17.0392 15.3625 17.0392 15.3209 17.0363 15.2798C17.0356 15.2729 17.0333 15.2662 17.0296 15.2602C17.026 15.2541 17.021 15.2488 17.015 15.2447C16.9332 15.1977 16.8497 15.1528 16.7669 15.1073L16.7274 15.0854L16.7593 15.0671C16.8316 15.0293 16.9039 14.9912 16.9768 14.9543C16.9847 14.9514 16.9914 14.9461 16.9958 14.9393C17.0003 14.9326 17.0022 14.9246 17.0013 14.9168C17.0013 14.8822 17.0013 14.8476 17.0013 14.8134C17.0023 14.8054 17.0005 14.7974 16.9961 14.7906C16.9917 14.7837 16.9851 14.7783 16.9771 14.7753C16.9478 14.7615 16.9195 14.7459 16.8924 14.7286C16.8832 14.7221 16.872 14.7186 16.8605 14.7186C16.849 14.7186 16.8378 14.7221 16.8287 14.7286C16.7096 14.7924 16.5889 14.8541 16.4691 14.9174C16.4614 14.9225 16.4521 14.9253 16.4425 14.9253C16.433 14.9253 16.4237 14.9225 16.4159 14.9174C16.2806 14.842 16.1449 14.7679 16.0092 14.6932C16.0012 14.6887 15.9935 14.6839 15.986 14.6787C15.9885 14.6754 15.9895 14.6731 15.9911 14.6725C16.1376 14.5957 16.2841 14.5186 16.4316 14.4432C16.4383 14.4415 16.4454 14.441 16.4524 14.4419C16.4594 14.4428 16.466 14.4451 16.472 14.4486C16.5939 14.5143 16.7154 14.581 16.8367 14.6485C16.8436 14.6533 16.8519 14.6559 16.8605 14.6559C16.8691 14.6559 16.8775 14.6533 16.8844 14.6485C16.9163 14.6299 16.9516 14.6146 16.9838 14.5954C16.9891 14.592 16.9937 14.5876 16.9971 14.5825C17.0006 14.5774 17.0029 14.5718 17.0039 14.5658C17.0064 14.5294 17.0064 14.4929 17.0039 14.4565C17.0031 14.4496 17.0009 14.4429 16.9972 14.4368C16.9936 14.4307 16.9887 14.4254 16.9828 14.4211C16.9427 14.3963 16.9004 14.3747 16.859 14.352L16.7347 14.2837C16.7488 14.2757 16.7577 14.2704 16.7666 14.2657C16.8535 14.2205 16.9398 14.1747 17.0271 14.1304C17.0344 14.1276 17.0406 14.1226 17.0446 14.1163C17.0486 14.1099 17.0503 14.1026 17.0494 14.0953C17.0494 14.0527 17.0519 14.0105 17.0532 13.9679L16.9121 13.8864L16.6624 14.0193C16.643 14.0297 16.623 14.0397 16.5988 14.0518C16.5988 13.9928 16.6007 13.9375 16.6003 13.8832C16.6003 13.8409 16.6131 13.7907 16.5927 13.7591C16.5723 13.7275 16.5185 13.7121 16.4781 13.6917C16.4725 13.6895 16.4666 13.6883 16.4605 13.6883C16.4545 13.6883 16.4485 13.6895 16.443 13.6917C16.4086 13.7074 16.3765 13.7269 16.3424 13.7428C16.3339 13.746 16.3268 13.7516 16.3221 13.7589C16.3174 13.7661 16.3153 13.7746 16.3163 13.783C16.3163 13.9139 16.3134 14.0444 16.3131 14.1753C16.3139 14.1837 16.3118 14.1921 16.3072 14.1993C16.3026 14.2065 16.2956 14.2122 16.2873 14.2155C16.1487 14.2867 16.0105 14.3591 15.8733 14.4308C15.8653 14.435 15.8567 14.4382 15.8478 14.4421C15.8468 14.4394 15.846 14.4366 15.8456 14.4338C15.8471 14.2775 15.8484 14.1215 15.8516 13.9653C15.8526 13.9592 15.855 13.9533 15.8588 13.9482C15.8625 13.9431 15.8675 13.9388 15.8733 13.9357C15.9659 13.8861 16.0599 13.838 16.1532 13.788C16.1921 13.7677 16.2452 13.7541 16.264 13.7228C16.2828 13.6914 16.2717 13.6397 16.2701 13.5972C16.2694 13.5908 16.2672 13.5846 16.2638 13.5789C16.2605 13.5733 16.2559 13.5684 16.2503 13.5644C16.2185 13.5443 16.1844 13.5284 16.1522 13.5089C16.1458 13.5045 16.138 13.5022 16.13 13.5022C16.1219 13.5022 16.1141 13.5045 16.1077 13.5089C16.0328 13.5488 15.9573 13.5878 15.8819 13.627C15.8742 13.6312 15.8656 13.6341 15.8545 13.6389C15.8545 13.5996 15.8545 13.5641 15.8545 13.5287C15.8564 13.456 15.8583 13.3822 15.8612 13.3083Z" fill="black"/>
<path d="M13.9594 11.753C13.9594 11.753 14.4675 11.9315 14.6893 11.753C14.9112 11.5746 15.113 11.1756 15.7984 11.6344C16.4838 12.0933 16.3799 11.5805 16.767 11.8045C17.154 12.0284 17.3512 11.753 17.3512 11.753" stroke="black" stroke-width="0.5"/>
</svg>
