<svg width="26" height="30" viewBox="0 0 26 30" fill="none" xmlns="http://www.w3.org/2000/svg">
<path d="M25.5373 12.7687C25.5373 19.3615 19.3799 24.7873 13.9011 28.7039C13.2234 29.1883 12.3139 29.1883 11.6363 28.7039C6.15737 24.7873 0 19.3615 0 12.7687C0 5.71672 5.71672 0 12.7687 0C19.8206 0 25.5373 5.71672 25.5373 12.7687Z" fill="#3163AE"/>
<circle cx="12.7687" cy="12.7687" r="10.0075" fill="#FFEF62" stroke="#FFFCE2" stroke-width="2"/>
<path d="M13.0805 6.2066L12.7329 6C12.7118 6.01438 12.6914 6.03027 12.6695 6.04314C12.5821 6.09308 12.4599 6.12335 12.4154 6.19449C12.3709 6.26562 12.3996 6.39579 12.3973 6.49719C12.3973 6.67579 12.3928 6.85362 12.3905 7.04735C12.2616 6.97168 12.1447 6.90054 12.027 6.83168C11.9358 6.77795 11.8423 6.68033 11.751 6.68487C11.6598 6.68941 11.5557 6.77871 11.4569 6.82865C11.4399 6.83419 11.4255 6.84559 11.4161 6.86084C11.4067 6.87608 11.403 6.89417 11.4056 6.91189C11.4056 7.00044 11.4056 7.08898 11.4056 7.17676C11.4028 7.19969 11.4074 7.22292 11.4188 7.24299C11.4302 7.26305 11.4479 7.27884 11.469 7.288C11.751 7.45298 12.0308 7.62173 12.3128 7.78671C12.3373 7.7973 12.3577 7.81538 12.3713 7.83836C12.3848 7.86133 12.3908 7.88802 12.3883 7.9146C12.38 8.27784 12.3785 8.64185 12.3739 9.00509C12.3739 9.03309 12.3739 9.06109 12.3739 9.09741C12.3506 9.08606 12.3347 9.07925 12.3204 9.07093C11.9901 8.87493 11.6605 8.67741 11.3287 8.48293C11.312 8.47404 11.2985 8.46017 11.29 8.44322C11.2814 8.42628 11.2784 8.4071 11.2812 8.38833C11.2857 8.05082 11.288 7.7133 11.2933 7.37579C11.2964 7.35684 11.2931 7.3374 11.2842 7.32045C11.2752 7.3035 11.2609 7.28998 11.2435 7.28195C11.1636 7.23881 11.0927 7.1866 11.0082 7.14573C10.9931 7.13938 10.9768 7.13612 10.9603 7.13612C10.9439 7.13612 10.9276 7.13938 10.9125 7.14573C10.8284 7.18602 10.747 7.23178 10.6689 7.28271C10.6556 7.29256 10.6445 7.30503 10.6362 7.31934C10.6279 7.33365 10.6226 7.34951 10.6206 7.36595C10.6146 7.56573 10.6146 7.76628 10.6123 7.96606C10.6123 7.99255 10.6123 8.01903 10.6123 8.05611C10.3778 7.91687 10.1561 7.78671 9.93361 7.65352C9.91603 7.64083 9.89493 7.63401 9.87328 7.63401C9.85163 7.63401 9.83052 7.64083 9.81295 7.65352C9.72472 7.70573 9.63196 7.7519 9.54147 7.80033L9.52563 7.82682C9.52563 7.93276 9.52563 8.03871 9.53166 8.1439C9.53363 8.16173 9.53919 8.17898 9.54801 8.19459C9.55682 8.2102 9.56871 8.22385 9.58294 8.23471C9.77222 8.35201 9.96528 8.46174 10.1568 8.57828L10.2639 8.6426C10.23 8.66303 10.2089 8.67666 10.1885 8.68876C10.0166 8.78563 9.84613 8.88401 9.67344 8.97785C9.65458 8.98547 9.63871 8.99904 9.62824 9.01652C9.61776 9.034 9.61324 9.05443 9.61537 9.07471C9.61537 9.1625 9.61537 9.25104 9.6116 9.33958C9.60903 9.35982 9.61327 9.38035 9.62365 9.3979C9.63404 9.41545 9.64997 9.42902 9.66891 9.43644C9.73822 9.47202 9.80522 9.51196 9.86951 9.55601C9.89102 9.57295 9.91757 9.58216 9.94492 9.58216C9.97226 9.58216 9.99882 9.57295 10.0203 9.55601C10.3031 9.39255 10.5889 9.23514 10.8717 9.07244C10.8903 9.05935 10.9124 9.05232 10.9351 9.05232C10.9578 9.05232 10.9799 9.05935 10.9984 9.07244C11.3182 9.26542 11.6402 9.45536 11.9614 9.64682C11.9803 9.65817 11.9976 9.67179 12.0233 9.6892C11.9946 9.70661 11.9727 9.72023 11.9479 9.73234C11.6274 9.9132 11.3069 10.0926 10.9871 10.2757C10.9678 10.2897 10.9446 10.2973 10.9207 10.2973C10.8969 10.2973 10.8737 10.2897 10.8544 10.2757C10.5701 10.1039 10.2835 9.9359 9.99921 9.76412C9.98264 9.75211 9.96272 9.74565 9.94228 9.74565C9.92184 9.74565 9.90192 9.75211 9.88534 9.76412C9.80993 9.8118 9.72924 9.8572 9.64855 9.89807C9.63226 9.90479 9.61866 9.91678 9.60992 9.93213C9.60118 9.94748 9.59779 9.96532 9.60029 9.98282C9.60029 10.0714 9.60029 10.1599 9.60029 10.2477C9.59722 10.2693 9.60123 10.2913 9.6117 10.3104C9.62217 10.3295 9.63854 10.3447 9.65835 10.3536C9.80541 10.4369 9.94869 10.5247 10.0942 10.6109L10.2413 10.6987L10.1659 10.7449C9.96075 10.8607 9.75563 10.9772 9.54976 11.0907C9.53238 11.0982 9.51782 11.111 9.50819 11.1273C9.49857 11.1437 9.49437 11.1626 9.49622 11.1815C9.49622 11.2897 9.49094 11.3987 9.48792 11.5069L9.83557 11.7143C10.0331 11.6008 10.23 11.4873 10.4276 11.3737C10.4736 11.3473 10.5203 11.3215 10.5784 11.2905C10.5784 11.4419 10.5739 11.5834 10.5784 11.7226C10.5784 11.8308 10.5482 11.9595 10.5965 12.0405C10.6447 12.1214 10.7722 12.1608 10.868 12.213C10.8945 12.224 10.9243 12.224 10.9509 12.213C11.0324 12.1729 11.1078 12.1222 11.1892 12.0813C11.2092 12.0734 11.226 12.0591 11.2371 12.0407C11.2481 12.0222 11.2528 12.0006 11.2503 11.9792C11.2503 11.6439 11.2578 11.3087 11.2586 10.9734C11.2566 10.9521 11.2615 10.9307 11.2725 10.9123C11.2834 10.8939 11.3 10.8795 11.3197 10.8713C11.6475 10.6881 11.9742 10.504 12.3 10.3188C12.3189 10.3082 12.3392 10.3007 12.3664 10.2878C12.3619 10.7048 12.3588 11.1127 12.3513 11.5198C12.3513 11.5425 12.3226 11.572 12.3 11.5856C12.0798 11.712 11.8574 11.8346 11.6372 11.9602C11.5436 12.014 11.4185 12.0533 11.3725 12.1358C11.3265 12.2183 11.3566 12.3485 11.3596 12.4574C11.3605 12.4723 11.3646 12.4867 11.3717 12.4998C11.3787 12.5128 11.3885 12.5242 11.4004 12.5331C11.4758 12.5823 11.5512 12.6216 11.6266 12.6708C11.6456 12.6856 11.6689 12.6935 11.693 12.6935C11.717 12.6935 11.7403 12.6856 11.7593 12.6708C11.9486 12.5596 12.1409 12.4536 12.3445 12.3394C12.3445 12.4045 12.3445 12.4574 12.3445 12.5112C12.3407 12.7382 12.3355 12.9652 12.3309 13.1922L12.6635 13.4034C12.7593 13.3474 12.8558 13.2929 12.9493 13.2323C12.9616 13.2235 12.972 13.2122 12.9797 13.1992C12.9875 13.1862 12.9926 13.1717 12.9946 13.1567C12.9998 13.0295 12.9946 12.9024 12.9998 12.7783C13.0051 12.6542 12.9998 12.5043 13.0059 12.353L13.3694 12.5687C13.4606 12.6224 13.5541 12.72 13.6454 12.7155C13.7366 12.7109 13.8407 12.6209 13.9395 12.5709C13.9565 12.5654 13.9709 12.554 13.9803 12.5388C13.9897 12.5235 13.9934 12.5054 13.9908 12.4877C13.9908 12.3999 13.9908 12.3106 13.9908 12.2228C13.9933 12.2 13.9886 12.177 13.9772 12.1571C13.9658 12.1373 13.9483 12.1216 13.9274 12.1123C13.6454 11.9474 13.3656 11.7779 13.0828 11.6129C13.0584 11.6025 13.0379 11.5846 13.0243 11.5617C13.0107 11.5389 13.0048 11.5122 13.0074 11.4857C13.0149 11.1217 13.0172 10.7585 13.021 10.3945C13.021 10.3673 13.021 10.3393 13.021 10.3029C13.0458 10.3158 13.0647 10.3234 13.0813 10.3332C13.4071 10.5262 13.7321 10.7207 14.0616 10.9129C14.0799 10.9215 14.095 10.9356 14.1049 10.9532C14.1148 10.9708 14.1189 10.9911 14.1167 11.0113C14.1114 11.3412 14.1107 11.6712 14.1031 12.0011C14.0989 12.0286 14.104 12.0567 14.1177 12.0809C14.1314 12.105 14.1528 12.1239 14.1785 12.1343C14.2539 12.1699 14.315 12.219 14.3874 12.2546C14.4026 12.261 14.4189 12.2642 14.4353 12.2642C14.4517 12.2642 14.468 12.261 14.4832 12.2546C14.5673 12.2145 14.6487 12.1687 14.7268 12.1176C14.7402 12.1079 14.7514 12.0955 14.7597 12.0811C14.768 12.0668 14.7732 12.0509 14.775 12.0344C14.7811 11.8346 14.7811 11.6348 14.7833 11.435C14.7833 11.4086 14.7833 11.3821 14.7833 11.3442C15.0179 11.4835 15.2358 11.6136 15.462 11.7476C15.4795 11.7603 15.5004 11.7672 15.522 11.7672C15.5435 11.7672 15.5645 11.7603 15.5819 11.7476C15.6709 11.6954 15.7629 11.65 15.8542 11.6015L15.87 11.5743C15.87 11.4691 15.87 11.3624 15.8632 11.2572C15.8615 11.2395 15.8561 11.2224 15.8474 11.2069C15.8387 11.1914 15.8269 11.1778 15.8127 11.1672C15.6189 11.0468 15.4213 10.9318 15.2252 10.8153L15.1317 10.7593L15.2071 10.7123C15.3783 10.6155 15.5495 10.5179 15.7222 10.4233C15.741 10.4158 15.7568 10.4023 15.7673 10.385C15.7778 10.3676 15.7824 10.3473 15.7803 10.3271C15.7803 10.2386 15.7803 10.1501 15.7803 10.0623C15.7826 10.042 15.7783 10.0214 15.768 10.0038C15.7576 9.98619 15.7418 9.97244 15.723 9.96466C15.6535 9.92937 15.5865 9.88942 15.5224 9.84509C15.5007 9.82852 15.4742 9.81955 15.447 9.81955C15.4197 9.81955 15.3932 9.82852 15.3715 9.84509C15.0895 10.0086 14.8037 10.1667 14.5201 10.3287C14.5018 10.3419 14.4798 10.349 14.4572 10.349C14.4346 10.349 14.4126 10.3419 14.3942 10.3287C14.0737 10.1357 13.7525 9.94574 13.4312 9.75428C13.4122 9.74289 13.3938 9.73051 13.3762 9.7172C13.3822 9.70888 13.3844 9.70282 13.3882 9.70131C13.7351 9.50455 14.082 9.30704 14.4312 9.11406C14.4472 9.10949 14.464 9.10834 14.4805 9.11068C14.497 9.11303 14.5128 9.11882 14.5269 9.12769C14.8155 9.29619 15.1033 9.46697 15.3904 9.64001C15.4068 9.65218 15.4266 9.65874 15.447 9.65874C15.4673 9.65874 15.4872 9.65218 15.5035 9.64001C15.5789 9.59234 15.6626 9.55298 15.7388 9.50379C15.7514 9.4951 15.7622 9.4839 15.7704 9.47089C15.7785 9.45787 15.784 9.44332 15.7863 9.42812C15.7923 9.33488 15.7923 9.24135 15.7863 9.14812C15.7845 9.1304 15.7792 9.11323 15.7706 9.09762C15.7621 9.08202 15.7505 9.06831 15.7365 9.05731C15.6415 8.99374 15.5412 8.9385 15.4432 8.88023L15.1491 8.70541C15.1823 8.68498 15.2034 8.67136 15.2245 8.65925C15.4304 8.54347 15.6347 8.42617 15.8414 8.31266C15.8587 8.3054 15.8732 8.2927 15.8827 8.27646C15.8922 8.26022 15.8962 8.24132 15.8941 8.2226C15.8941 8.11363 15.9002 8.00541 15.9032 7.89644L15.5691 7.68757L14.9779 8.02811C14.9319 8.0546 14.8844 8.08033 14.8271 8.11136C14.8271 7.96001 14.8316 7.81849 14.8308 7.67925C14.8308 7.57103 14.861 7.44238 14.8127 7.36141C14.7645 7.28044 14.637 7.24108 14.5413 7.18887C14.5282 7.18307 14.5141 7.18008 14.4998 7.18008C14.4855 7.18008 14.4714 7.18307 14.4583 7.18887C14.3769 7.22898 14.3007 7.27892 14.22 7.31979C14.2 7.32789 14.1831 7.34231 14.1719 7.36087C14.1608 7.37944 14.156 7.40114 14.1582 7.42271C14.1582 7.75795 14.1514 8.09244 14.1506 8.42768C14.1525 8.44911 14.1477 8.47059 14.1367 8.48907C14.1257 8.50755 14.1092 8.52208 14.0895 8.5306C13.7615 8.71298 13.4342 8.89839 13.1092 9.08228C13.0903 9.09287 13.07 9.1012 13.0489 9.11104C13.0464 9.10415 13.0447 9.09706 13.0436 9.08985C13.0474 8.68952 13.0504 8.28995 13.0579 7.88963C13.0602 7.87395 13.066 7.859 13.0749 7.8459C13.0838 7.8328 13.0955 7.82187 13.1092 7.81395C13.3286 7.68682 13.5511 7.56346 13.7721 7.43557C13.8641 7.38336 13.99 7.34854 14.0345 7.26833C14.079 7.18811 14.0526 7.05568 14.0488 6.94671C14.0471 6.93025 14.0421 6.91432 14.0341 6.89988C14.026 6.88544 14.0151 6.87279 14.0021 6.86271C13.9267 6.81125 13.846 6.77038 13.7698 6.72043C13.7545 6.70924 13.736 6.70321 13.717 6.70321C13.698 6.70321 13.6796 6.70924 13.6642 6.72043C13.487 6.8226 13.3083 6.92249 13.1296 7.02314C13.1115 7.03373 13.0911 7.0413 13.0647 7.05341C13.0647 6.95276 13.0647 6.86195 13.0647 6.77114C13.0692 6.58497 13.0738 6.39579 13.0805 6.2066Z" fill="black"/>
<path d="M16.0187 14.0831C15.919 13.9279 15.7822 13.7164 15.5086 13.7164C15.235 13.7164 15.0982 13.9279 14.9976 14.0831C14.8971 14.2382 14.859 14.2805 14.7793 14.2805C14.6995 14.2805 14.6597 14.2358 14.5609 14.0831C14.4622 13.9303 14.3245 13.7164 14.0508 13.7164C13.7772 13.7164 13.6404 13.9279 13.5399 14.0831C13.4393 14.2382 13.4012 14.2805 13.3215 14.2805C13.2418 14.2805 13.2019 14.2358 13.1031 14.0831C13.0044 13.9303 12.8667 13.7164 12.5922 13.7164C12.3176 13.7164 12.1817 13.9279 12.0812 14.0831C11.9806 14.2382 11.9425 14.2805 11.8628 14.2805C11.7831 14.2805 11.7432 14.2358 11.6445 14.0831C11.5457 13.9303 11.408 13.7164 11.1344 13.7164C10.8608 13.7164 10.723 13.9279 10.6234 14.0831C10.5237 14.2382 10.4848 14.2805 10.405 14.2805C10.3253 14.2805 10.2854 14.2358 10.1867 14.0831C10.0879 13.9303 9.95021 13.7164 9.67569 13.7164C9.40117 13.7164 9.26527 13.9279 9.16561 14.0831C9.06594 14.2382 9.0288 14.2781 8.93819 14.2793H8.83582L8.84125 14.7035L8.94635 14.7164C9.21815 14.7164 9.35768 14.5049 9.45734 14.3498C9.557 14.1947 9.59687 14.1524 9.67569 14.1524C9.75451 14.1524 9.79347 14.1947 9.89404 14.3498C9.99461 14.5049 10.1314 14.7164 10.405 14.7164C10.6787 14.7164 10.8155 14.5049 10.916 14.3498C11.0166 14.1947 11.0537 14.1465 11.1344 14.1465C11.215 14.1465 11.2522 14.1888 11.3527 14.3439C11.4533 14.499 11.5892 14.7106 11.8628 14.7106C12.1364 14.7106 12.2741 14.499 12.3738 14.3439C12.4735 14.1888 12.5124 14.1465 12.594 14.1465C12.6755 14.1465 12.7118 14.1888 12.8132 14.3451C12.9147 14.5014 13.0506 14.7106 13.3233 14.7106C13.596 14.7106 13.7337 14.499 13.8343 14.3439C13.9349 14.1888 13.9711 14.1465 14.0508 14.1465C14.1306 14.1465 14.1686 14.1888 14.2692 14.3451C14.3698 14.5014 14.5057 14.7106 14.7793 14.7106C15.0529 14.7106 15.1906 14.499 15.2903 14.3439C15.3899 14.1888 15.4289 14.1465 15.5086 14.1465C15.5884 14.1465 15.6264 14.1888 15.727 14.3451C15.8275 14.5014 15.9643 14.7106 16.238 14.7106H16.3358V14.2793H16.238C16.1582 14.2805 16.1184 14.2358 16.0187 14.0831Z" fill="black"/>
<path d="M17.413 15.3831C17.2801 15.228 17.0977 15.0165 16.7329 15.0165C16.3681 15.0165 16.1857 15.228 16.0516 15.3831C15.9175 15.5382 15.8667 15.5805 15.7604 15.5805C15.6541 15.5805 15.601 15.5359 15.4693 15.3831C15.3376 15.2303 15.154 15.0165 14.7892 15.0165C14.4244 15.0165 14.242 15.228 14.1079 15.3831C13.9738 15.5382 13.923 15.5805 13.8167 15.5805C13.7104 15.5805 13.6573 15.5359 13.5256 15.3831C13.3939 15.2303 13.2103 15.0165 12.8443 15.0165C12.4782 15.0165 12.297 15.228 12.1629 15.3831C12.0289 15.5382 11.9781 15.5805 11.8718 15.5805C11.7655 15.5805 11.7124 15.5359 11.5807 15.3831C11.449 15.2303 11.2654 15.0165 10.9006 15.0165C10.5357 15.0165 10.3521 15.228 10.2192 15.3831C10.0864 15.5382 10.0344 15.5805 9.92811 15.5805C9.8218 15.5805 9.76865 15.5359 9.63697 15.3831C9.5053 15.2303 9.32168 15.0165 8.95565 15.0165C8.58962 15.0165 8.40842 15.228 8.27553 15.3831C8.14265 15.5382 8.09312 15.5782 7.97232 15.5793H7.83582L7.84306 16.0036L7.98319 16.0165C8.3456 16.0165 8.53164 15.805 8.66452 15.6499C8.7974 15.4947 8.85055 15.4524 8.95565 15.4524C9.06075 15.4524 9.11269 15.4947 9.24678 15.6499C9.38087 15.805 9.56328 16.0165 9.92811 16.0165C10.2929 16.0165 10.4753 15.805 10.6094 15.6499C10.7435 15.4947 10.7931 15.4466 10.9006 15.4466C11.0081 15.4466 11.0576 15.4889 11.1917 15.644C11.3258 15.7991 11.507 16.0106 11.8718 16.0106C12.2366 16.0106 12.4203 15.7991 12.5531 15.644C12.686 15.4889 12.738 15.4466 12.8467 15.4466C12.9554 15.4466 13.0037 15.4889 13.139 15.6452C13.2743 15.8014 13.4555 16.0106 13.8191 16.0106C14.1828 16.0106 14.3664 15.7991 14.5005 15.644C14.6346 15.4889 14.6829 15.4466 14.7892 15.4466C14.8955 15.4466 14.9462 15.4889 15.0803 15.6452C15.2144 15.8014 15.3956 16.0106 15.7604 16.0106C16.1253 16.0106 16.3089 15.7991 16.4418 15.644C16.5746 15.4889 16.6266 15.4466 16.7329 15.4466C16.8392 15.4466 16.8899 15.4889 17.024 15.6452C17.1581 15.8014 17.3405 16.0106 17.7053 16.0106H17.8358V15.5793H17.7053C17.599 15.5805 17.5459 15.5359 17.413 15.3831Z" fill="black"/>
<path d="M17.413 16.5831C17.2801 16.4279 17.0977 16.2164 16.7329 16.2164C16.3681 16.2164 16.1857 16.4279 16.0516 16.5831C15.9175 16.7382 15.8667 16.7805 15.7604 16.7805C15.6541 16.7805 15.601 16.7358 15.4693 16.5831C15.3376 16.4303 15.154 16.2164 14.7892 16.2164C14.4244 16.2164 14.242 16.4279 14.1079 16.5831C13.9738 16.7382 13.923 16.7805 13.8167 16.7805C13.7104 16.7805 13.6573 16.7358 13.5256 16.5831C13.3939 16.4303 13.2103 16.2164 12.8443 16.2164C12.4782 16.2164 12.297 16.4279 12.1629 16.5831C12.0289 16.7382 11.9781 16.7805 11.8718 16.7805C11.7655 16.7805 11.7124 16.7358 11.5807 16.5831C11.449 16.4303 11.2654 16.2164 10.9006 16.2164C10.5357 16.2164 10.3521 16.4279 10.2192 16.5831C10.0864 16.7382 10.0344 16.7805 9.92811 16.7805C9.8218 16.7805 9.76865 16.7358 9.63697 16.5831C9.5053 16.4303 9.32168 16.2164 8.95565 16.2164C8.58962 16.2164 8.40842 16.4279 8.27553 16.5831C8.14265 16.7382 8.09312 16.7781 7.97232 16.7793H7.83582L7.84306 17.2035L7.98319 17.2164C8.3456 17.2164 8.53164 17.0049 8.66452 16.8498C8.7974 16.6947 8.85055 16.6524 8.95565 16.6524C9.06075 16.6524 9.11269 16.6947 9.24678 16.8498C9.38087 17.0049 9.56328 17.2164 9.92811 17.2164C10.2929 17.2164 10.4753 17.0049 10.6094 16.8498C10.7435 16.6947 10.7931 16.6465 10.9006 16.6465C11.0081 16.6465 11.0576 16.6888 11.1917 16.8439C11.3258 16.999 11.507 17.2106 11.8718 17.2106C12.2366 17.2106 12.4203 16.999 12.5531 16.8439C12.686 16.6888 12.738 16.6465 12.8467 16.6465C12.9554 16.6465 13.0037 16.6888 13.139 16.8451C13.2743 17.0014 13.4555 17.2106 13.8191 17.2106C14.1828 17.2106 14.3664 16.999 14.5005 16.8439C14.6346 16.6888 14.6829 16.6465 14.7892 16.6465C14.8955 16.6465 14.9462 16.6888 15.0803 16.8451C15.2144 17.0014 15.3956 17.2106 15.7604 17.2106C16.1253 17.2106 16.3089 16.999 16.4418 16.8439C16.5746 16.6888 16.6266 16.6465 16.7329 16.6465C16.8392 16.6465 16.8899 16.6888 17.024 16.8451C17.1581 17.0014 17.3405 17.2106 17.7053 17.2106H17.8358V16.7793H17.7053C17.599 16.7805 17.5459 16.7358 17.413 16.5831Z" fill="black"/>
<path d="M14.2977 13.296H15.2924L17.5548 16.9693C17.5548 16.9693 17.8934 17.4574 17.3225 17.4574H8.03479C8.03479 17.4574 7.56875 17.3727 7.82288 16.9905C8.07702 16.6083 10.0023 13.296 10.0023 13.296H11.3144V12.9562H9.89671C9.83096 12.9557 9.76602 12.9708 9.70719 13.0003C9.64835 13.0298 9.59727 13.0727 9.55811 13.1257C9.36656 13.38 6.22415 17.415 6.12989 17.5422C6.03562 17.6693 5.7664 18.3285 6.46849 18.3285H18.8684C18.8684 18.3285 19.5879 18.137 19.2455 17.6065C18.9031 17.076 15.8173 13.1045 15.8173 13.1045C15.8173 13.1045 15.6936 12.9381 15.5217 12.9426C15.2653 12.9487 14.2517 12.9426 14.2517 12.9426L14.2977 13.296Z" fill="black"/>
</svg>
