<?xml version="1.0" encoding="utf-8"?>
<!-- Generator: Adobe Illustrator 15.0.0, SVG Export Plug-In . SVG Version: 6.00 Build 0)  -->
<!DOCTYPE svg PUBLIC "-//W3C//DTD SVG 1.1//EN" "http://www.w3.org/Graphics/SVG/1.1/DTD/svg11.dtd">
<svg version="1.1" id="Layer_1" xmlns="http://www.w3.org/2000/svg" xmlns:xlink="http://www.w3.org/1999/xlink" x="0px" y="0px"
	 width="60px" height="60px" viewBox="0 0 60 60" enable-background="new 0 0 60 60" xml:space="preserve">
<g>
	<path fill="#FFFFFF" d="M51.072,22.401h-11.38c-1.2,0-2.175,0.971-2.175,2.172v4.432c-6.252,0-14.802,0-18.034,0
		c-5.339,0-8.676,7.134-8.676,7.134l6.34-0.174c0,0,0.501-3.623,4.672-3.623c2.456,0,9.948,0,15.697,0v0.186
		c0,1.199,0.975,2.172,2.175,2.172h11.38c1.2,0,2.174-0.973,2.174-2.172v-7.954C53.246,23.372,52.272,22.401,51.072,22.401z"/>
	<path fill="#FFFFFF" d="M49.276,27.184c0,1.201-0.974,2.173-2.175,2.173h-6.66c-1.2,0-2.175-0.972-2.175-2.173V19.23
		c0-1.2,0.975-2.173,2.175-2.173h6.66c1.201,0,2.175,0.974,2.175,2.173V27.184z"/>
	<path d="M48.051,13.526h-8.56c-1.118,0-2.024,0.906-2.024,2.023v13.099c0,1.118,0.906,2.024,2.024,2.024h8.56
		c1.118,0,2.025-0.906,2.025-2.024V15.55C50.076,14.432,49.169,13.526,48.051,13.526z M48.897,26.935
		c0,1.119-0.906,2.023-2.025,2.023H40.67c-1.117,0-2.025-0.904-2.025-2.023v-7.407c0-1.12,0.908-2.024,2.025-2.024h6.202
		c1.119,0,2.025,0.905,2.025,2.024V26.935z"/>
	<g>
		<g>
			<polygon fill="#FFFFFF" points="5.362,43.389 21.067,43.389 22.948,40.502 7.243,40.502 			"/>
			<polygon fill="#FFFFFF" points="20.488,33.09 7.243,33.09 7.243,40.48 22.948,40.48 22.948,34.641 			"/>
		</g>
		<polygon points="6.085,33.09 6.085,40.502 4.205,43.389 18.513,43.389 20.393,40.502 20.393,33.09 		"/>
	</g>
	<g>
		<circle fill="#FFFFFF" cx="27.679" cy="38.469" r="4.529"/>
		<path d="M27.678,36.012c1.355,0,2.458,1.102,2.458,2.457s-1.103,2.457-2.458,2.457s-2.457-1.102-2.457-2.457
			S26.323,36.012,27.678,36.012 M27.678,33.939c-2.501,0-4.528,2.029-4.528,4.529c0,2.502,2.027,4.527,4.528,4.527
			s4.53-2.025,4.53-4.527C32.208,35.969,30.179,33.939,27.678,33.939L27.678,33.939z"/>
	</g>
	<g>
		<circle fill="#FFFFFF" cx="39.724" cy="38.469" r="4.529"/>
		<path d="M39.725,36.012c1.354,0,2.456,1.102,2.456,2.457s-1.103,2.457-2.456,2.457c-1.356,0-2.459-1.102-2.459-2.457
			S38.368,36.012,39.725,36.012 M39.725,33.939c-2.501,0-4.53,2.029-4.53,4.529c0,2.502,2.029,4.527,4.53,4.527
			c2.5,0,4.528-2.025,4.528-4.527C44.253,35.969,42.225,33.939,39.725,33.939L39.725,33.939z"/>
	</g>
	<g>
		<circle fill="#FFFFFF" cx="48.829" cy="38.469" r="4.528"/>
		<path d="M48.829,36.012c1.354,0,2.456,1.102,2.456,2.457s-1.102,2.457-2.456,2.457c-1.355,0-2.457-1.102-2.457-2.457
			S47.474,36.012,48.829,36.012 M48.829,33.939c-2.501,0-4.528,2.029-4.528,4.529c0,2.502,2.027,4.527,4.528,4.527
			s4.528-2.025,4.528-4.527C53.357,35.969,51.33,33.939,48.829,33.939L48.829,33.939z"/>
	</g>
</g>
</svg>
