<?xml version="1.0" encoding="utf-8"?>
<!-- Generator: Adobe Illustrator 15.0.0, SVG Export Plug-In . SVG Version: 6.00 Build 0)  -->
<!DOCTYPE svg PUBLIC "-//W3C//DTD SVG 1.1//EN" "http://www.w3.org/Graphics/SVG/1.1/DTD/svg11.dtd">
<svg version="1.1" id="Layer_1" xmlns="http://www.w3.org/2000/svg" xmlns:xlink="http://www.w3.org/1999/xlink" x="0px" y="0px"
	 width="60px" height="60px" viewBox="0 0 60 60" enable-background="new 0 0 60 60" xml:space="preserve">
<g>
	<path d="M34.659,27.1H13.876v3.325h-1.09V27.1h-0.848c-1.245,0-2.253,1.007-2.253,2.252v4.149c0,1.244,1.009,2.252,2.253,2.252
		h22.722c1.243,0,2.254-1.008,2.254-2.252v-4.149C36.913,28.108,35.902,27.1,34.659,27.1z"/>
	<path d="M56.087,43.307l-6.37-9.626c0.271-0.317,0.44-0.724,0.44-1.173v-6.646c0-0.666-0.385-1.175-1.257-1.945l-1.42-6.371
		c-0.192-0.865-1.153-1.97-2.309-1.97h-5.011c-0.935,0-1.691,0.754-1.691,1.69v8.596v2.346v4.3c0,1.004,0.813,1.816,1.816,1.816
		h7.455l0.975,8.982H56.087z"/>
	<g>
		<circle fill="#FFFFFF" cx="16.678" cy="37.99" r="5.316"/>
		<path d="M16.678,34.857c1.728,0,3.133,1.406,3.133,3.133s-1.405,3.133-3.133,3.133c-1.729,0-3.134-1.406-3.134-3.133
			S14.95,34.857,16.678,34.857 M16.678,32.674c-2.937,0-5.316,2.381-5.316,5.316c0,2.938,2.379,5.316,5.316,5.316
			c2.936,0,5.316-2.379,5.316-5.316C21.995,35.055,19.614,32.674,16.678,32.674L16.678,32.674z"/>
	</g>
	<g>
		<circle fill="#FFFFFF" cx="41.507" cy="37.99" r="5.316"/>
		<path d="M41.507,34.857c1.729,0,3.135,1.406,3.135,3.133s-1.406,3.133-3.135,3.133c-1.728,0-3.134-1.406-3.134-3.133
			S39.779,34.857,41.507,34.857 M41.507,32.674c-2.937,0-5.316,2.381-5.316,5.316c0,2.938,2.38,5.316,5.316,5.316
			s5.316-2.379,5.316-5.316C46.823,35.055,44.443,32.674,41.507,32.674L41.507,32.674z"/>
	</g>
	<path fill="#FFFFFF" d="M46.658,22.56c0,0.828-0.67,1.496-1.495,1.496h-3.68c-0.823,0-1.494-0.668-1.494-1.496v-3.931
		c0-0.824,0.671-1.495,1.494-1.495h3.128c0.825,0,1.282,0.596,1.494,1.495L46.658,22.56z"/>
	<path fill="#FFFFFF" d="M34.301,17.801H7.035c-1.443,0-2.611,1.167-2.611,2.61v7.664c0,1.44,1.168,2.609,2.611,2.609h27.266
		c1.44,0,2.612-1.169,2.612-2.609v-7.664C36.913,18.969,35.741,17.801,34.301,17.801z"/>
</g>
</svg>
