<?xml version="1.0" encoding="utf-8"?>
<!-- Generator: Adobe Illustrator 15.0.0, SVG Export Plug-In . SVG Version: 6.00 Build 0)  -->
<!DOCTYPE svg PUBLIC "-//W3C//DTD SVG 1.1//EN" "http://www.w3.org/Graphics/SVG/1.1/DTD/svg11.dtd">
<svg version="1.1" id="Layer_1" xmlns="http://www.w3.org/2000/svg" xmlns:xlink="http://www.w3.org/1999/xlink" x="0px" y="0px"
	 width="60px" height="60px" viewBox="0 0 60 60" enable-background="new 0 0 60 60" xml:space="preserve">
<g>
	<g>
		<polygon points="39.241,40.107 39.675,42.672 40.947,42.672 41.379,40.107 41.812,42.672 43.083,42.672 43.516,40.107 
			43.949,42.672 45.221,42.672 45.653,40.107 46.085,42.672 47.357,42.672 47.789,40.107 48.223,42.672 49.926,42.672 
			48.026,36.498 39.004,36.498 37.104,42.672 38.811,42.672 		"/>
		<path fill="#FFFFFF" d="M35.688,16.318h-8.696c-1.265,0-2.291,1.025-2.291,2.291v15.214c0,1.264,1.026,2.289,2.291,2.289h8.696
			c1.265,0,2.291-1.025,2.291-2.289V18.609C37.979,17.344,36.953,16.318,35.688,16.318z"/>
		<path fill="#FFFFFF" d="M21.124,13.939h-8.652c-1.264,0-2.29,1.025-2.29,2.29v17.594c0,1.264,1.026,2.289,2.29,2.289h8.652
			c1.264,0,2.29-1.025,2.29-2.289V16.229C23.414,14.964,22.388,13.939,21.124,13.939z"/>
		<path fill="#FFFFFF" d="M45.128,30.913H41.57c-1.265,0-2.291,1.025-2.291,2.29v0.62c0,1.264,1.026,2.289,2.291,2.289h3.558
			c1.265,0,2.29-1.025,2.29-2.289v-0.62C47.418,31.938,46.393,30.913,45.128,30.913z"/>
		<path d="M35.827,13.805h-9.018c-1.178,0-2.133,0.955-2.133,2.133v13.799c0,1.178,0.956,2.132,2.133,2.132h9.018
			c1.179,0,2.134-0.954,2.134-2.132V15.938C37.961,14.76,37.006,13.805,35.827,13.805z M36.719,27.931
			c0,1.178-0.955,2.131-2.132,2.131H28.05c-1.178,0-2.132-0.953-2.132-2.131v-7.804c0-1.177,0.954-2.132,2.132-2.132h6.537
			c1.177,0,2.132,0.955,2.132,2.132V27.931z"/>
		<g>
			<circle fill="#FFFFFF" cx="31.319" cy="37.9" r="4.771"/>
			<path d="M31.318,35.312c1.428,0,2.589,1.161,2.589,2.588c0,1.428-1.161,2.589-2.589,2.589c-1.427,0-2.588-1.161-2.588-2.589
				C28.73,36.474,29.891,35.312,31.318,35.312 M31.318,33.13c-2.636,0-4.771,2.138-4.771,4.771c0,2.635,2.135,4.771,4.771,4.771
				s4.771-2.137,4.771-4.771C36.09,35.268,33.954,33.13,31.318,33.13L31.318,33.13z"/>
		</g>
		<g>
			<circle fill="#FFFFFF" cx="16.798" cy="37.9" r="4.772"/>
			<path d="M16.798,35.312c1.428,0,2.589,1.161,2.589,2.588c0,1.428-1.161,2.589-2.589,2.589c-1.428,0-2.59-1.161-2.59-2.589
				C14.208,36.474,15.37,35.312,16.798,35.312 M16.798,33.13c-2.636,0-4.772,2.138-4.772,4.771c0,2.635,2.137,4.771,4.772,4.771
				c2.634,0,4.771-2.137,4.771-4.771C21.569,35.268,19.433,33.13,16.798,33.13L16.798,33.13z"/>
		</g>
	</g>
</g>
</svg>
