<?xml version="1.0" encoding="utf-8"?>
<!-- Generator: Adobe Illustrator 15.0.0, SVG Export Plug-In . SVG Version: 6.00 Build 0)  -->
<!DOCTYPE svg PUBLIC "-//W3C//DTD SVG 1.1//EN" "http://www.w3.org/Graphics/SVG/1.1/DTD/svg11.dtd">
<svg version="1.1" id="Layer_1" xmlns="http://www.w3.org/2000/svg" xmlns:xlink="http://www.w3.org/1999/xlink" x="0px" y="0px"
	 width="60px" height="60px" viewBox="0 0 60 60" enable-background="new 0 0 60 60" xml:space="preserve">
<g>
	<g>
		<path d="M38.304,29.403H15.582c-1.245,0-2.254,1.007-2.254,2.252v4.149c0,1.244,1.009,2.253,2.254,2.253h22.722
			c1.243,0,2.253-1.007,2.253-2.253v-4.149C40.557,30.412,39.547,29.403,38.304,29.403z"/>
		<path d="M52.545,26.221l-1.42-6.372c-0.193-0.866-1.154-1.971-2.31-1.971h-5.011c-0.934,0-1.691,0.757-1.691,1.691v8.597v2.348
			v4.298c0,1.003,0.814,1.814,1.815,1.814h8.055c1.002,0,1.816-0.812,1.816-1.814v-6.646C53.8,27.499,53.416,26.99,52.545,26.221z"
			/>
		<g>
			<circle fill="#FFFFFF" cx="20.322" cy="40.293" r="5.316"/>
			<path d="M20.322,37.159c1.729,0,3.134,1.405,3.134,3.134c0,1.729-1.406,3.135-3.134,3.135c-1.728,0-3.133-1.405-3.133-3.135
				C17.189,38.564,18.594,37.159,20.322,37.159 M20.322,34.978c-2.936,0-5.315,2.381-5.315,5.315c0,2.937,2.38,5.317,5.315,5.317
				c2.936,0,5.316-2.381,5.316-5.317C25.638,37.358,23.258,34.978,20.322,34.978L20.322,34.978z"/>
		</g>
		<g>
			<circle fill="#FFFFFF" cx="45.151" cy="40.293" r="5.317"/>
			<path d="M45.151,37.159c1.728,0,3.134,1.405,3.134,3.134c0,1.729-1.406,3.135-3.134,3.135s-3.133-1.405-3.133-3.135
				C42.019,38.564,43.424,37.159,45.151,37.159 M45.151,34.978c-2.937,0-5.317,2.381-5.317,5.315c0,2.937,2.381,5.317,5.317,5.317
				c2.936,0,5.316-2.381,5.316-5.317C50.468,37.358,48.087,34.978,45.151,34.978L45.151,34.978z"/>
		</g>
		<path fill="#FFFFFF" d="M50.303,24.864c0,0.825-0.67,1.495-1.496,1.495h-3.68c-0.823,0-1.494-0.669-1.494-1.495v-3.932
			c0-0.825,0.671-1.494,1.494-1.494h3.128c0.825,0,1.282,0.594,1.494,1.494L50.303,24.864z"/>
		<path fill="#FFFFFF" d="M38.304,15.358H10.731c-1.243,0-2.253,1.007-2.253,2.252v14.58c0,1.244,1.01,2.251,2.253,2.251h27.572
			c1.243,0,2.253-1.007,2.253-2.251V17.61C40.557,16.366,39.547,15.358,38.304,15.358z"/>
		<polygon points="28.895,43.046 29.328,45.61 30.599,45.61 31.032,43.046 31.464,45.61 32.736,45.61 33.168,43.046 33.601,45.61 
			34.872,45.61 35.306,43.046 35.737,45.61 37.009,45.61 37.442,43.046 37.874,45.61 39.578,45.61 37.679,39.437 28.658,39.437 
			26.757,45.61 28.462,45.61 		"/>
	</g>
</g>
</svg>
